<?xml version="1.0" encoding="UTF-8"?>
<svg width="22px" height="24px" viewBox="0 0 22 24" version="1.1" xmlns="http://www.w3.org/2000/svg" xmlns:xlink="http://www.w3.org/1999/xlink">
    <!-- Generator: Sketch 49.3 (51167) - http://www.bohemiancoding.com/sketch -->
    <title>delivery-sellpy</title>
    <desc>Created with Sketch.</desc>
    <defs></defs>
    <g id="Page-1" stroke="none" stroke-width="1" fill="none" fill-rule="evenodd">
        <g id="11-copy" transform="translate(-789.000000, -578.000000)">
            <g id="delivery-sellpy" transform="translate(789.000000, 578.000000)">
                <g id="package" fill="#000000" fill-rule="nonzero">
                    <path d="M21.9899129,5.65808358 C21.9899129,5.56690587 21.9697387,5.47572816 21.9293902,5.38961587 C21.8486933,5.2173913 21.692343,5.10088645 21.520862,5.06542845 L11.2471343,0.0607851414 C11.0806969,-0.0202617138 10.8839982,-0.0202617138 10.7175608,0.0607851414 L0.342961944,5.11101731 C0.141219624,5.20726045 0.010087116,5.40987759 0,5.63782187 L0,5.64288729 C0,5.64795272 0,5.65301815 0,5.66314901 L0,18.336851 C0,18.5698607 0.131132508,18.7826087 0.342961944,18.8839173 L10.7175608,23.9341494 C10.7226043,23.9341494 10.7226043,23.9341494 10.7276479,23.9392149 C10.7427785,23.9442803 10.7579092,23.9493457 10.7730399,23.9594766 C10.7780834,23.9594766 10.783127,23.964542 10.7932141,23.964542 C10.8083448,23.9696074 10.8234755,23.9746729 10.8386061,23.9797383 C10.8436497,23.9797383 10.8486933,23.9848037 10.8537368,23.9848037 C10.8688675,23.9898691 10.8890417,23.9898691 10.9041724,23.9949346 C10.909216,23.9949346 10.9142595,23.9949346 10.9193031,23.9949346 C10.9394773,23.9949346 10.9646951,24 10.9848693,24 C11.0050436,24 11.0302613,24 11.0504356,23.9949346 C11.0554791,23.9949346 11.0605227,23.9949346 11.0655663,23.9949346 C11.0806969,23.9949346 11.1008712,23.9898691 11.1160018,23.9848037 C11.1210454,23.9848037 11.126089,23.9797383 11.1311325,23.9797383 C11.1462632,23.9746729 11.1613939,23.9696074 11.1765245,23.964542 C11.1815681,23.964542 11.1866116,23.9594766 11.1966988,23.9594766 C11.2118294,23.9544111 11.2269601,23.9493457 11.2420908,23.9392149 C11.2471343,23.9392149 11.2471343,23.9392149 11.2521779,23.9341494 L21.6570381,18.868721 C21.8638239,18.7674124 22,18.5546644 22,18.3216547 L22,5.67327986 C21.9899129,5.66821444 21.9899129,5.66314901 21.9899129,5.65808358 Z M10.9798258,1.2815534 L19.9775332,5.66314901 L16.6639156,7.27902068 L7.66620816,2.89742507 L10.9798258,1.2815534 Z M10.9798258,10.0447446 L1.98211829,5.66314901 L6.27922971,3.57112706 L15.2769372,7.95272267 L10.9798258,10.0447446 Z M1.21045392,6.6407767 L10.3745988,11.1034192 L10.3745988,22.4145209 L1.21045392,17.9518784 L1.21045392,6.6407767 Z M11.5850527,22.4145209 L11.5850527,11.1034192 L15.8872077,9.00633179 L15.8872077,11.964542 C15.8872077,12.2988603 16.1595598,12.5723934 16.4924347,12.5723934 C16.8253095,12.5723934 17.0976616,12.2988603 17.0976616,11.964542 L17.0976616,8.41367666 L20.779459,6.62051499 L20.779459,17.9316167 L11.5850527,22.4145209 Z" id="Shape"></path>
                </g>
                <path d="M6.19684259,12.9576761 C6.02903022,12.7681374 5.90724923,12.6349227 5.83149964,12.5580319 C5.46499966,12.1860106 5.18336175,12 4.98658591,12 C4.80635686,12 4.56778433,12.0376187 4.46613293,12.2111939 C4.34969652,12.4100153 4.26609312,12.7360045 4.46613293,13.1691743 C4.84081165,13.9805104 5.83149964,14.3830067 6.10958056,14.7805168 C6.38766148,15.1780269 6.72290925,15.8150479 6.00961342,16.1833281 C5.69443115,16.3460592 5.21575306,16.2695969 4.72982099,15.8343561 C4.56500975,15.6867375 4.32173608,15.367994 4,14.8781255" id="Path-3" stroke="#000000" stroke-width="0.75"></path>
            </g>
        </g>
    </g>
</svg>