<svg xmlns="http://www.w3.org/2000/svg" viewBox="0 0 92.69 87.19"><defs><style>.cls-1{fill:#404040;}</style></defs><title>Asset 3</title><g id="Layer_2" data-name="Layer 2"><g id="Layer_4" data-name="Layer 4"><path class="cls-1" d="M74.15,58.73c-3,3.49-5.91,6.88-8.87,10.17-2.47,2.81-5.52,5.19-7.46,8.29-2.37,3.73-5.76,6-9.06,8.57-3.1,2.38-6.1,1.41-8.91-.14C34.67,82.71,29.29,80.05,25,75.73s-8.91-8.09-11.86-13.42c-.93-1.59-1.41-3.43-2.28-5.08C7.83,51.51,6.27,47.07,3.36,41.3a27.21,27.21,0,0,1-1.93-6.78c-.54-4.12-2.62-8-.49-12.11a44.89,44.89,0,0,1,4.85-7.75C9.32,10.3,12.53,5.83,17.47,3A15.87,15.87,0,0,1,25.41.4c2.52,0,5-.48,7.56-.39,8.33.25,15,3.73,19.72,10.66,1.11,1.6,2.23,1.94,3.87.73,4.31-3.1,8.48-6.4,13-9C78-2.6,87.62.55,91,10.33c3,8.63,2.08,17-2.37,25.15-2.38,4.26-4.32,8.72-6.88,12.88-2.18,3.59-4.94,6.83-7.56,10.37M30.93,64.16c5.62,4.16,11.1,8.52,16.91,12.45,3.44,2.32,5.62,1.79,7.56-.58S60,71.83,62,69.4c4.9-5.76,9.79-11,14.54-17A80.83,80.83,0,0,0,89.11,29.68c2.43-6.88,1.27-14.84-2.27-21.48C85.05,4.86,81.7,1.92,78,1.58,73,1.19,67.21,5.52,64.41,7.88c-3.15,2.27-4.46,4.83-7.65,7.05a3,3,0,0,1-4.41-.53,48.77,48.77,0,0,0-4-5.38c-7.13-7.26-16.05-9.09-25.15-7-7.61,1.8-12.11,9.87-12.74,17.67C9.72,29.32,12.77,37.9,17.22,46c3.59,6.59,7.71,12.84,13.71,18.12M8.65,13.29c-2,2.95-4.17,5.86-6,9a10.92,10.92,0,0,0-1.26,5,23.55,23.55,0,0,0,.92,5.13c0,.39.38,3.27.53,3.61.24-.3,1.21-2.57,1.45-2.91,2.28-3.3,3.88-6.3,3.84-11.5.19-2.61,1-5.23,1.4-7.85,0-.19-.44-.43-.92-.43M35.78,73.36c-.15-.73,0-1.7-.44-2.13-1.5-1.45-3.19-2.76-4.84-4.07-.19-.1-1,.14-1,.34-.53,2.13-1.06,4.26-1.4,6.39a1.94,1.94,0,0,0,.67,1.6c1.75,1.41,3.54,2.67,5.38,4a4.47,4.47,0,0,0,1.26.44,5.49,5.49,0,0,0,.34-1.21c.05-1.6.05-3.25.05-5.33m-17-19.86c-.34-.83-.67-1.7-1.06-2.47a5.13,5.13,0,0,0-.83-1.49,14.12,14.12,0,0,0-.53,1.92,27.74,27.74,0,0,0-.48,3.93c.09,2.13-1.36,4.26.38,6.44a33.27,33.27,0,0,1,3,5.28c.19.24.48.44.68.68.24-.29.72-.58.72-.87-.19-4.46,2.09-9.21-1.89-13.42m-3.35-6.38a51.88,51.88,0,0,0-2.42-6.78,13,13,0,0,0-1-1.94c-.24.39-1.4,1.1-1.49,1.53-.24.92-.83.89-.93,1.86-.71,1.66-2.91,4.84-.48,7.27.53,2.52,2.23,3.86,3.2,6.23.1.29.24.58.34.82.24-.19.63-.34.63-.58.29-1.55.77-2.11,1.16-3.57M4.77,37c-.53,1.26.78,6.83,1.75,7.55a.84.84,0,0,0,.63-.29c.34-1.26,1.2-2.74,1.54-3.95,1.92-3.47,2.71-4.54,0-9.61a6.54,6.54,0,0,1-.39-1.21c-.39.34-.87.63-1.06,1.06A56.38,56.38,0,0,0,4.77,37M27.3,64.88c-.92-1.26-1.79-2.47-2.66-3.73A8.82,8.82,0,0,1,23.86,60a5.42,5.42,0,0,0-.68,1.4,29.25,29.25,0,0,0,.1,6.49c.34,1.94,1.55,3.69,2.42,5.53.1.24.44.39.63.58a2.74,2.74,0,0,0,.2-.87c.34-2.67.67-5.38.77-8.29m18.9,18.9a10.28,10.28,0,0,0,1.11-.68c1-.83,1.94-1.7,2.91-2.57l-3.15-1.16c-.29-.15-.54-.29-.78-.44-.92-.43-1.79-.82-2.71-1.26-.19,1-.44,2.09-.53,3.15,0,.58.43,1.16.43,1.75-.19,2.22,1.07,1.88,2.72,1.21m-6.79-1c.39-.34,1.12-.68,1.12-1.12.14-1.3-.24-2.81.14-4,.58-1.79-.43-2.81-1.21-4-.24-.29-.77-.29-1.16-.48A7.63,7.63,0,0,0,38,74.57c0,1.31.53,2.81.14,4-.62,1.75,0,2.86,1.31,4.27"/></g></g></svg>