<?xml version="1.0" encoding="UTF-8"?>
<svg width="33px" height="30px" viewBox="0 0 33 30" version="1.1" xmlns="http://www.w3.org/2000/svg" xmlns:xlink="http://www.w3.org/1999/xlink">
    <!-- Generator: Sketch 49.3 (51167) - http://www.bohemiancoding.com/sketch -->
    <title>Shape</title>
    <desc>Created with Sketch.</desc>
    <defs></defs>
    <g id="Page-1" stroke="none" stroke-width="1" fill="none" fill-rule="evenodd">
        <g id="product-v2" transform="translate(-1116.000000, -643.000000)" fill="#000000" fill-rule="nonzero">
            <g id="Group-5" transform="translate(784.000000, 277.000000)">
                <g id="if_icon-ios7-heart-outline_211754" transform="translate(332.000000, 366.000000)">
                    <path d="M23.7875,1.33526012 C28.1445312,1.33526012 31.6851562,4.91618497 31.6851562,9.33815029 C31.6851562,11.6098266 30.7484375,13.6560694 29.253125,15.1127168 L16.5,28.1011561 L3.5234375,14.8786127 C2.165625,13.4393064 1.3234375,11.4884393 1.3234375,9.33815029 C1.3234375,4.91618497 4.85546875,1.33526012 9.22109375,1.33526012 C12.5039062,1.33526012 15.3140625,3.36416185 16.5085937,6.26011561 C17.6859375,3.37283237 20.5046875,1.33526012 23.7875,1.33526012 Z M23.7875,0 C20.8828125,0 18.21875,1.3699422 16.5,3.62427746 C14.78125,1.3699422 12.1171875,0 9.2125,0 C4.13359375,0 0,4.18786127 0,9.33815029 C0,11.7572254 0.9109375,14.0549133 2.56953125,15.8063584 L15.5632812,29.0462428 L16.5,30 L17.4367187,29.0462428 L30.18125,16.0578035 C31.9859375,14.2976879 33,11.9046243 33,9.33815029 C33,4.18786127 28.8664062,0 23.7875,0 Z" id="Shape"></path>
                </g>
            </g>
        </g>
    </g>
</svg>