<?xml version="1.0" encoding="UTF-8"?>
<svg width="21px" height="20px" viewBox="0 0 21 20" version="1.1" xmlns="http://www.w3.org/2000/svg" xmlns:xlink="http://www.w3.org/1999/xlink">
    <!-- Generator: Sketch 42 (36781) - http://www.bohemiancoding.com/sketch -->
    <title>Bag_icon Copy 3</title>
    <desc>Created with Sketch.</desc>
    <defs></defs>
    <g id="Symbols-4" stroke="none" stroke-width="1" fill="none" fill-rule="evenodd">
        <g id="navbarMobile" transform="translate(-263.000000, -10.000000)">
            <g id="Bag_icon-Copy-18" transform="translate(258.000000, 8.000000)">
                <g id="1483472476_151" stroke-width="1" transform="translate(15.124696, 11.741280) rotate(-4.000000) translate(-15.124696, -11.741280) translate(4.749696, 1.741280)">
                    <g id="Layer_1" transform="translate(0.000000, -0.000000)">
                        <g id="Group" transform="translate(0.000000, -0.000000)">
                            <path d="M1.83581915,5.05458148 L4.58521016,4.8220206 L3.33521016,2.0720206 C3.33521016,2.0720206 5.33521016,1.0720206 5.83521016,1.3220206 C6.33521016,1.5720206 8.58521016,4.3220206 8.58521016,4.3220206 L10.0852102,4.3220206 L11.8352102,2.8220206 L13.5852102,2.5720206 L14.5852102,3.3220206 L15.5852102,4.3220206 L16.8352102,4.0720206 L18.8352102,5.0720206 L20.0852102,18.3220206 L5.33521016,19.3220206 L0.835210158,16.8220206 L1.83581915,5.05458148 Z" id="Path-2" fill="#FFFFFF" transform="translate(10.460210, 10.301959) rotate(4.000000) translate(-10.460210, -10.301959) "></path>
                            <path d="M19.9052022,19.2481203 L4.1487089,19.2481203 L4.1487089,5.03625314 L19.9052022,5.03625314 L19.9052022,19.2481203 Z M4.96510752,18.4519373 L19.0888036,18.4519373 L19.0888036,5.83243618 L4.96510752,5.83243618 L4.96510752,18.4519373 Z" id="Shape" fill="#010101"></path>
                            <polygon id="Shape" fill="#010101" points="4.1487089 19.168502 0.352455323 16.1031973 2.14853228 3.56331453 4.76100786 5.0760623 4.35280856 5.79262703 2.80165118 4.83720739 1.2504938 15.7847241 4.63854807 18.5315556"></polygon>
                            <polygon id="Shape" fill="#010101" points="19.4153631 5.75281788 16.9253473 4.59835248 16.0273088 4.59835248 16.0273088 3.80216944 17.088627 3.80216944 19.7419225 5.03625314"></polygon>
                            <rect id="Rectangle-path" fill="#010101" x="9.00628068" y="3.72255114" width="1.34705772" height="0.796183034"></rect>
                            <rect id="Rectangle-path" fill="#010101" x="2.47509173" y="3.68274199" width="2.8982151" height="0.796183034"></rect>
                            <polygon id="Shape" fill="#010101" points="9.53693978 5.63339042 6.55708483 1.01552882 4.43444842 1.77190271 6.55708483 5.2352989 5.82232607 5.63339042 3.20985049 1.37381119 6.88364427 0.0601091827 10.1900587 5.2352989"></polygon>
                            <path d="M16.7212476,5.39453551 L15.904849,5.39453551 C15.904849,4.0012152 14.721071,2.88655895 13.2515535,2.88655895 C11.782036,2.88655895 10.598258,4.0012152 10.598258,5.39453551 L9.78185937,5.39453551 C9.78185937,3.56331453 11.3330167,2.09037592 13.2515535,2.09037592 C15.1700903,2.09037592 16.7212476,3.56331453 16.7212476,5.39453551 Z" id="Shape" fill="#010101"></path>
                        </g>
                    </g>
                </g>
                <path d="M13.6144632,13.7480236 C13.6144632,13.869769 13.5835798,13.9778611 13.5218119,14.0723033 C13.460044,14.1667455 13.3709742,14.2401498 13.2546,14.2925182 C13.1382257,14.3448866 13.0017118,14.3710704 12.8450541,14.3710704 C12.7143568,14.3710704 12.6046981,14.3618949 12.5160746,14.3435436 C12.4274511,14.3251922 12.3352482,14.2931898 12.2394632,14.2475353 L12.2394632,13.774879 C12.3406194,13.8267999 12.4458022,13.8673065 12.555015,13.8964 C12.6642278,13.9254936 12.7644872,13.9400402 12.8557963,13.9400402 C12.9345727,13.9400402 12.9923114,13.9263888 13.029014,13.8990856 C13.0657167,13.8717824 13.0840677,13.8366468 13.0840677,13.7936779 C13.0840677,13.7668223 13.0766826,13.743324 13.061912,13.7231822 C13.0471414,13.7030405 13.0234193,13.6826754 12.990745,13.6620861 C12.9580707,13.6414968 12.8710151,13.5994236 12.7295756,13.5358654 C12.6015638,13.4776782 12.5055565,13.4212823 12.4415507,13.3666759 C12.3775448,13.3120695 12.3301006,13.2494074 12.2992167,13.1786876 C12.2683327,13.1079679 12.252891,13.0242692 12.252891,12.927589 C12.252891,12.7467613 12.3186862,12.6057715 12.4502787,12.5046154 C12.5818711,12.4034592 12.7626961,12.352882 12.9927591,12.352882 C13.1959665,12.352882 13.4031992,12.3998786 13.6144632,12.4938732 L13.4519877,12.9034191 C13.2684744,12.8192715 13.1100287,12.7771984 12.9766459,12.7771984 C12.9077165,12.7771984 12.8575868,12.7892832 12.8262552,12.8134532 C12.7949237,12.8376233 12.7792582,12.8676116 12.7792582,12.9034191 C12.7792582,12.9419121 12.7991758,12.9763763 12.8390116,13.0068126 C12.8788474,13.037249 12.9869396,13.0927497 13.1632914,13.1733165 C13.3324817,13.2494074 13.4499732,13.331092 13.5157694,13.4183727 C13.5815656,13.5056534 13.6144632,13.6155359 13.6144632,13.7480236 Z M15.0834574,14.344215 L13.91793,14.344215 L13.91793,12.3810802 L15.0834574,12.3810802 L15.0834574,12.8067394 L14.4483256,12.8067394 L14.4483256,13.1155773 L15.0364603,13.1155773 L15.0364603,13.5412364 L14.4483256,13.5412364 L14.4483256,13.9118419 L15.0834574,13.9118419 L15.0834574,14.344215 Z M15.4272074,14.344215 L15.4272074,12.3810802 L15.9576029,12.3810802 L15.9576029,13.9158702 L16.7135843,13.9158702 L16.7135843,14.344215 L15.4272074,14.344215 Z M17.0277933,14.344215 L17.0277933,12.3810802 L17.5581888,12.3810802 L17.5581888,13.9158702 L18.3141703,13.9158702 L18.3141703,14.344215 L17.0277933,14.344215 Z M20.0530619,13.0054698 C20.0530619,13.2247906 19.9883856,13.3942022 19.8590311,13.5137096 C19.7296766,13.633217 19.5459423,13.6929698 19.3078226,13.6929698 L19.1587748,13.6929698 L19.1587748,14.344215 L18.6283793,14.344215 L18.6283793,12.3810802 L19.3078226,12.3810802 C19.5557894,12.3810802 19.7419854,12.4352382 19.8664164,12.5435558 C19.9908473,12.6518734 20.0530619,12.8058432 20.0530619,13.0054698 Z M19.1587748,13.2605968 L19.2554545,13.2605968 C19.3351261,13.2605968 19.3984596,13.2382175 19.4454569,13.1934581 C19.4924542,13.1486988 19.5159525,13.0869318 19.5159525,13.0081554 C19.5159525,12.8756678 19.4425483,12.8094249 19.2957377,12.8094249 L19.1587748,12.8094249 L19.1587748,13.2605968 Z M21.0668558,13.1088634 L21.4052347,12.3810802 L21.9799418,12.3810802 L21.3340677,13.5774913 L21.3340677,14.344215 L20.7996439,14.344215 L20.7996439,13.5936046 L20.1537699,12.3810802 L20.7311625,12.3810802 L21.0668558,13.1088634 Z" id="SELLPY" fill="#000000" transform="translate(17.109703, 13.361976) rotate(-4.000000) translate(-17.109703, -13.361976) "></path>
            </g>
        </g>
    </g>
</svg>