<svg xmlns="http://www.w3.org/2000/svg" viewBox="0 0 143.42 137.86"><defs><style>.cls-1{fill:#434343;}</style></defs><title>Asset 4</title><g id="Layer_2" data-name="Layer 2"><g id="Layer_4" data-name="Layer 4"><g id="Shape_5" data-name="Shape 5"><path class="cls-1" d="M115.54,113.31c-.53-2.12-1.61-4.12-1.63-6.37a2.22,2.22,0,0,0-.37-1,23.3,23.3,0,0,1-1.74-4.82c-.4-1.13-.83-2.26-1.18-3.38-.66-2.23-1.33-4.44-2-6.67-.23-.8-.32-1.63-.48-2.43a1.68,1.68,0,0,0-.16-.3,2.33,2.33,0,0,1-.1.32c-.07-.07-.2-.14-.18-.19.11-1.08.21-2.13.39-3.21a2.5,2.5,0,0,1,.46-1,.63.63,0,0,0,.25.07l-.2-.14a2.06,2.06,0,0,1,.18-.62.8.8,0,0,0,.34-.07,2.84,2.84,0,0,0,.4-.23c.52-.39,1-.8,1.56-1.21a.84.84,0,0,0,.23-.23,10.67,10.67,0,0,1,1-1.08,22.19,22.19,0,0,1,1.88-1.77c.83-.63,1.75-1.11,2.6-1.68.48-.35.9-.76,1.4-1.08a1.09,1.09,0,0,0,.35-.07.46.46,0,0,0,.16-.23c.92-.81,1.82-1.63,2.78-2.42,1.27-1,2.55-2,3.89-3a7.79,7.79,0,0,1,1.21-.53.39.39,0,0,0-.06-.3c.22-.27.45-.53.68-.8a.42.42,0,0,1,.19.3,1.61,1.61,0,0,1-.23.27.39.39,0,0,0-.09.21.55.55,0,0,1,.2-.21.41.41,0,0,0,.16-.23,20.69,20.69,0,0,1,1.57-1.54.6.6,0,0,0,.25.07l-.21-.14c.88-.76,1.77-1.49,2.6-2.32.51-.48.81-1.22,1.33-1.68s1.52-1,2.21-1.54a19.58,19.58,0,0,0,1.91-2,3.77,3.77,0,0,0,.46-.92c.25-.67.23-1.52,1.15-1.77a4.88,4.88,0,0,1,.53-.69.43.43,0,0,0-.07-.3,1.75,1.75,0,0,1,.46-.18s.11.23.18.34c.09-.16.25-.41.23-.46-.83-.73.28-1.17.3-1.79a12.73,12.73,0,0,1,.46-2.19c0-.06.21-.06.39,0a1.82,1.82,0,0,1,.12.35.24.24,0,0,1,.13-.05c-.07-.11-.13-.25-.2-.37,0-.3.07-.76-.1-.85-.92-.64-1.21-2-2.57-2.16-1.06-.11-2.05-.48-3.1-.64-1.61-.28-3.22-.51-4.85-.71s-3.29-.37-4.95-.51c-1.4-.14-2.78-.21-4.18-.32-2.16-.16-4.34-.35-6.53-.51a26.46,26.46,0,0,1-3.35-.18c-2.26-.46-4.58-.42-6.76-.9s-4.28-.62-6.39-1.08c-.74-.16-1.36-.87-2.05-1.31-.11-.07-.41.12-.46.07-.18-.23-.27-.55-.46-.78s-.73-.55-.89-.92a50.65,50.65,0,0,0-2.42-5.4c-1-1.73-1.17-3.79-2.32-5.45a6,6,0,0,1-.5-1.56c-1-1.77-1.82-3.52-2.67-5.29a4.25,4.25,0,0,1-.28-.92c-.45-2.14-1.74-3.88-2.68-5.77-.86-1.72-2.37-3.15-3.06-4.92-.6-1.58-1.84-2.59-2.53-4a7.45,7.45,0,0,0-.85-1.72A33.48,33.48,0,0,0,74.7,3.66a6.37,6.37,0,0,0-1.59-1.12,10.16,10.16,0,0,0-2.92-.62c-.5,0-1.08.46-1.52.8-.59.46-1.1,1.06-1.67,1.54a.77.77,0,0,1-.58.09,5.82,5.82,0,0,0-3.19.6c-.83.32-1.38,1.26-2.1,1.88a2.76,2.76,0,0,0-.27-.09l.21.14L57.55,8.93a5.86,5.86,0,0,0-2.64,4.23c-.21,1-.53,1-1.13.46a1.22,1.22,0,0,0,.07-.28l-.14.21a3.94,3.94,0,0,1-.85.41,1.16,1.16,0,0,0-.3-.18c.39-2,.85-3.91,2.35-5.41.36-.36,1.17-.23,1.28-1a2,2,0,0,0,.49.07l-.44-.14c1.42-.85,2.89-1.63,4.27-2.55.56-.37,1.13-.64,1.7-1,.3-.16.72,0,1.09-.11a2.66,2.66,0,0,0,1-.39A38.94,38.94,0,0,1,67.89.49,6.45,6.45,0,0,1,70.54,0c.62-.07,1.49.34,1.79.25,1.08-.34,1.42,1,2.48.78C75.27,1,76,2,76.56,2.47c.16.14.41.14.55.27a9.35,9.35,0,0,1,1.61,1.73c.18.3.27.62.6.82.07,0,0,.28,0,.4a1.61,1.61,0,0,0-.27-.1l.2.14a5.83,5.83,0,0,1,1.91,2.48,11.44,11.44,0,0,0,1.75,2.44,27.2,27.2,0,0,1,2.44,3.91c.41.85,1.24,1.58,1.21,2.66.56.92,1.38,1.84,1.47,2.81s.69,1.42.88,2.23a22.75,22.75,0,0,0,1.61,3.95c.2.42.5.78.69,1.2.94,2.13,1.84,4.27,2.76,6.39.64,1.47,1.31,2.92,2,4.36.44.92.9,1.82,1.43,2.74,1.15.39,2.25.85,3.38,1.13a40.51,40.51,0,0,0,4,.57c3.52.44,7.06.87,10.57,1.29,1.38.16,2.78.37,4.19.43,1.67.1,3.4-.06,5.08,0,2.22.14,4.45.44,6.68.67a37.54,37.54,0,0,1,4,.48c1.7.37,3.35.87,5,1.36a3.44,3.44,0,0,1,.78.46c1.59,1,2.05,2.64,2.32,4.29.39,2.3-.57,4.14-2.09,5.8-.69.73-1.17,1.65-1.82,2.43s-1.15,1.36-1.74,2c-1.47,1.54-2.92,3.08-4.44,4.55-.92.85-2,1.57-2.94,2.39-.69.6-1.24,1.36-2,1.91-3,2.32-6,4.6-8.95,6.9a5.53,5.53,0,0,1-.71.48,24.26,24.26,0,0,0-6.3,4.94,9.71,9.71,0,0,0-2.09,2.39,5.6,5.6,0,0,0,.16,4.21c.83,2.21,1.43,4.48,2.09,6.76.56,1.84,1.06,3.7,1.64,5.54s1.26,3.63,1.81,5.47,1,3.56,1.4,5.35c.56,2.35,1.18,4.69,1.57,7.06s.5,4.74.71,7.1c.11,1.4-.67,2.21-2.46,2.62s-3.1,1.7-4.48,2.81a14.39,14.39,0,0,1-7.5,3.28c-1.21.14-2.41.56-3.63.65a7.67,7.67,0,0,1-2.94-.25,33,33,0,0,1-3.49-1.57c-1.66-.71-3.36-1.31-5-2.09-2.42-1.13-4.78-2.37-7.13-3.63a47.63,47.63,0,0,1-4.41-2.6c-1.2-.8-2.21-1.81-3.33-2.69a15.39,15.39,0,0,0-1.66-1.1,84.78,84.78,0,0,0-7.56-4.23c-1.17-.51-2.74-.18-4.12-.21-1.65,0-2.43,1.24-3.4,2.32a14.94,14.94,0,0,1-3,2.6c-2.35,1.56-4.79,3-7.2,4.51-2.57,1.56-5.19,3-7.75,4.62-1.49.92-2.87,2.11-4.43,2.89-2.12,1.06-4,2.69-6.44,3a2,2,0,0,1-1.38-.43A43.61,43.61,0,0,1,20.79,129c-1.49-2.07-1.44-4.44-.64-6.83.14-.43.37-1,.21-1.33-1-1.93,0-3.7.25-5.52a5.42,5.42,0,0,0,0-.57c.05-1.22-.34-2.39.6-3.63.57-.72.23-2.14.32-3.25a87.2,87.2,0,0,1,.85-8.78c.44-2.32.09-4.75.34-7.12.17-1.54-.62-2.44-1.49-3.4-2.76-3.13-5.49-6.3-8.3-9.43C11.94,78,10.8,77,9.81,76,7,72.74,4,69.56,2,65.75a22.24,22.24,0,0,1-2-6.07c-.13-.81.72-1.89,1.27-2.74.71-1.1,1.59-2.09,2.41-3.12s1.77-2.37,2.78-3.45C7.21,49.59,8.2,49,9,48.26c1.91-1.87,4.37-1.91,6.76-2,3.38-.23,6.78-.21,10.14-.53,2.5-.23,5-.9,7.47-1.33,1.58-.26,3.19-.42,4.78-.72a6.56,6.56,0,0,0,2.55-.73,2.83,2.83,0,0,0,.8-1.84,9.41,9.41,0,0,1,1.11-3,11.22,11.22,0,0,0,.55-1.95,3.68,3.68,0,0,1,.51-.88,2.94,2.94,0,0,0-.07-.76c.2-.36,1.12.16.92-.71a3.83,3.83,0,0,0-.4,0c-.11-.18.12-.27.26-.48a9.93,9.93,0,0,0,.32-1.06,1.36,1.36,0,0,1,.11.35,3.72,3.72,0,0,1,.46-.41c.83-.12.53-.4.16-.69.07,0,.19-.05.19-.1.27-.82.48-1.7.78-2.52a5,5,0,0,1,1-2.23c.87-.83.29-1.94.8-2.79a12.19,12.19,0,0,0,.51-1.65c.5-1.22,1-2.44,1.61-3.61s1.21-2,1.81-3.13a4,4,0,0,1,.6-.52c.44-.4.8-1.2,1.49-.33s.78,1.45-.09,2.12a.86.86,0,0,0-.16.23c-.07.16-.14.27-.23.46-1.43.83-1.72,2.41-2.57,3.61-1.25,1.79-.85,4-1.8,5.84-.6,1.17-1.28,2.32-1.93,3.44-.18.32-.43.6-.6.95l-1.44,3.17c-.12.3-.35.66-.26.94.39,1.43-.64,2.39-1,3.56-.25.78-.46,1.57-.64,2.37a1,1,0,0,0,0,.76,2.27,2.27,0,0,0,2.87.21,5.47,5.47,0,0,1,1.75-.85,18.91,18.91,0,0,0,2.85-.56c.59-.25,1-1,1.42-1.56a8.61,8.61,0,0,0,1.7-4,47.53,47.53,0,0,1,2-5.81,14.13,14.13,0,0,0,.28-1.61,1.22,1.22,0,0,0,.07-.28l-.14.21a2.69,2.69,0,0,0-3.2-.19,5.38,5.38,0,0,1-1.86.19c-.07,0-.14-.12-.23-.19.09-.09.21-.16.25-.27a5.56,5.56,0,0,0,.21-.85c.09-.19.16-.3.23-.46.46-.12,1.08.14,1.2-.65a1.28,1.28,0,0,1,.59.07,2.06,2.06,0,0,0-.09.26l.14-.21c.85.11,1.7.3,2.55.34a1.41,1.41,0,0,0,1.08-.46c.44-.5.74-1.15,1.15-1.65a.63.63,0,0,0,.25.07l-.2-.14a15.16,15.16,0,0,0,1.08-2.85,9.61,9.61,0,0,1,1-3.49c.11.11.23.25.39.43a.43.43,0,0,0,.28-.07c.43-.46.85-.92,1.33-1.38-.42,1.43-.23,3.11-1.52,4.23.74.46-.16.69-.18,1a8.47,8.47,0,0,1-.46,1.88c-.42,1-1,2-1.38,3C58.4,27.73,58,29,57.62,30.35c-.65,1.95-.94,4-2,5.86a26.79,26.79,0,0,0-1.21,3.29c-.28.69-.85,1.26-.83,2-.16-.18-.23-.3-.32-.41s-.12.07-.19.09c.16.12.3.25.44.37a1.5,1.5,0,0,0-1.13,1.31c-.25,1.26-1.05,1.47-2.09,1.45a43,43,0,0,0-6.39.48,98,98,0,0,0-10.36,1.54,39.43,39.43,0,0,1-6,.71c-2.6.23-5.22.3-7.84.49-2.27.18-4.55.41-6.82.66a2.91,2.91,0,0,0-3,3,2.08,2.08,0,0,0,.35,1c.8,1.4,1.61,2.78,2.48,4.14.3.44.83.69,1.17,1.08,1.68,1.84,3.38,3.65,5,5.56,1.36,1.66,2.5,3.5,3.84,5.17,1.7,2.14,3.49,4.19,5.22,6.28a34.72,34.72,0,0,1,2.23,2.83,73,73,0,0,1,3.86,6.2,7.71,7.71,0,0,1,.3,5.4,21.87,21.87,0,0,0-.62,3.89c-.21,4.09-.26,8.18-.51,12.25-.14,2-.64,4-.87,6a48.4,48.4,0,0,0-.65,7.29c.07,3.28.55,6.57.9,9.83a1.29,1.29,0,0,0,1.86.79c2.81-1.75,5.56-3.59,8.37-5.31a21.63,21.63,0,0,1,3.38-1.57,3.9,3.9,0,0,0,2-1.26,2.69,2.69,0,0,1,1.19-1c2.64-1.08,4.81-2.92,7.06-4.57,1.54-1.13,3.06-2.25,4.55-3.4a12.76,12.76,0,0,1,5.65-2.74c.3,0,.44-.73.76-.85,1.15-.44,2.21-1.08,3.59-.37a46.86,46.86,0,0,0,5,1.87c.25.11.46.39.73.48a4.87,4.87,0,0,0,1.29.27c.74.07,1.47,0,2.21,0,.11,0,.34.11.34.18,0,1.66,1.54,2,2.49,2.81,2.36,2,5.19,3.26,7.86,4.75.55.3.89.92,1.4,1.31.21.16.57.12.85.21,2.48,1,4.94,1.93,7.4,2.94.32.14.55.49.85.71a7.57,7.57,0,0,0,1.36.86,22.69,22.69,0,0,0,2.71.91c2.28.65,4.55,1.25,6.83,1.87a10.42,10.42,0,0,0,2.69.64c2.13,0,3.21-1.84,2.34-3.82-.3-.66,0-1.58-.14-2.34-.48-2.3-1-4.57-1.56-6.87a4.48,4.48,0,0,1-.07-1.11.36.36,0,0,0-.07-.29m23.1-55.17c0-.14,0-.3,0-.44a.93.93,0,0,1-.26.44.75.75,0,0,1,0,.21.5.5,0,0,1,.25-.21m-28,72.63a3.41,3.41,0,0,0-.53.33,5.61,5.61,0,0,0-.67.78,8.13,8.13,0,0,0,1-.46c.19-.14.23-.42.44-.65l.3-.06a.58.58,0,0,0,0-.14,1.6,1.6,0,0,1-.48.2M90.37,120.2c-1-.62-2.07-1.24-3.1-1.84a1.94,1.94,0,0,0-2.32.12c-1.7,1.33-3.45,2.55-5.17,3.81-1,.74-1.06,1.77,0,2.44s2,1.17,3,1.68a2.14,2.14,0,0,0,3.17-1.57A2.78,2.78,0,0,1,87,123.17c1.19-1,2.92-1.29,3.58-3,0-.07,0-.14,0-.21a.53.53,0,0,1-.26.21m-68.5-34c.3.3.63.58.9.9a6.85,6.85,0,0,1,1.75,5c-.07,1.49-.19,3-.21,4.5a1.83,1.83,0,0,0,.46,1c.55-.09,1.47-.28,1.52-.58.41-2.11,2.25-3.19,3.35-4.8.74-1.08,1.91-1.91,2.49-3.08a6.05,6.05,0,0,0,.73-3.82,24.61,24.61,0,0,0-2.6-5.21,1.72,1.72,0,0,0-2.48-.3,5.22,5.22,0,0,0-.55.6c-1.08,1.28-2.57,2.27-3,4.09,0,.27-.39.48-.59.73-.26-.32-.69-.62-.72-1A4,4,0,0,1,24.33,81c1-.95,2-1.8,3-2.76a1.29,1.29,0,0,0,0-2c-.69-.72-1.22-1.59-1.88-2.33-1.54-1.63-2.44-2.16-4.37-.2-1.26,1.26-2.46,2.64-3.75,3.93a3.16,3.16,0,0,1-1,.48A6.12,6.12,0,0,1,16,76.85a1.34,1.34,0,0,1,.41-.85c1.54-1.45,3.08-2.9,4.67-4.28a1.91,1.91,0,0,0,.5-2.55c-1.26-1.79-2.55-3.56-3.91-5.28a1.4,1.4,0,0,0-2.41.36c-.48.88-1,1.75-1.47,2.62-.74,1.29-1.59,2.56-2.25,3.89-.58,1.15-1.47,2.39-.37,3.7.8.94,1.72,1.79,2.57,2.71s1.5,1.56,2.16,2.41,1,1.73,1.59,2.44c1.33,1.45,2.8,2.78,4.11,4.16a.75.75,0,0,1,0,.21.5.5,0,0,1,.25-.21M10.61,56.3a5.65,5.65,0,0,0-.32-1.24C9.71,54,9.12,52.94,8.5,51.91c-.1-.18-.33-.3-.49-.44l-.39.46a1.37,1.37,0,0,1-.25.23,17.83,17.83,0,0,0-1.65,1.47A19.87,19.87,0,0,1,3.9,56.05c-1.49,1.24-2.51,3.77-1.59,5.72a37,37,0,0,0,2,3.52c1,1.72,2.12,3.4,3.22,5.08.78,1.19,1.93,1.15,2.55,0,1.31-2.34,2.62-4.69,4-7,1-1.64,1.08-2.46.05-3.84-.3-.37-.78-.55-1.11-.9-.8-.83-1.24-.8-1.83.14C10,60.76,8.73,62.69,7.51,64.64c-.19.3-.3.65-.46,1a9.61,9.61,0,0,1-.53.82c-.25-.23-.6-.41-.69-.69a1.41,1.41,0,0,1,0-1.14C7,62.64,8.22,60.76,9.44,58.85c.5-.78,1.54-1.26,1.17-2.55m84.47,74.59c-.52.67-.5,1.15.37,1.52a19.4,19.4,0,0,1,1.93,1.12,3.65,3.65,0,0,0,4.81-.3,2.09,2.09,0,0,1,.87-.39c3.06-.59,5.56-2.3,8.09-4,.12-.09.16-.3.25-.46a3.65,3.65,0,0,0-.5-.13c-1.15-.16-2.32-.26-3.47-.49a6.6,6.6,0,0,1-2.19-.78,4.74,4.74,0,0,0-4.75.12c-1.8,1.19-3.59,2.36-5.41,3.79M30.61,94c-.12,0-.32.07-.37.16-.92,1.38-1.86,2.73-2.71,4.16a2.11,2.11,0,0,1-2.39,1.17c-.81-.18-1.22-.09-1.31.74-.3,2.66-.62,5.33-.9,8,0,.23.25.66.39.66a1.49,1.49,0,0,0,1-.32c2.11-1.7,4.23-3.4,6.32-5.17a2.76,2.76,0,0,0,1-1.38c.25-2.37.43-4.76.48-7.13,0-1.17-.44-1.42-1.47-.89m-5.52,25.28c-.8,1-1.58,2-2.41,2.87-2.51,2.74-1.31,4.69.6,6.76.76.81,1.54.6,2.34-.25a8,8,0,0,1,4.14-2.74,1.1,1.1,0,0,0,.71-.73,11.33,11.33,0,0,0,0-1.93c-.05-1.29-.16-2.58-.16-3.86,0-.69-.58-1.84-1.08-1.68-1.36.41-3,0-4.12,1.56m70.57,8.51a1.67,1.67,0,0,1,.37-.46c1.54-1,3.08-2,4.64-2.92a1.52,1.52,0,0,1,.39-.16,1.22,1.22,0,0,0-.39-.14c-2.14-.07-4-1.15-5.82-2a3.29,3.29,0,0,0-3.86.5,23.66,23.66,0,0,0-3.44,3.71c-1.13,1.6-1.06,2,.57,3.12,2.28,1.54,4.53,1.59,6.6-.94a2.67,2.67,0,0,1,.94-.71m-64.48-19.2c-.16-.62.46-1.56-.64-1.74a2.72,2.72,0,0,0-1.82.13c-1.31,1.06-2.5,2.28-3.72,3.45-.23.19-.48.37-.69.58-.69.71-1.75,1.33-2,2.16a43.94,43.94,0,0,0-.78,6c0,.18.09.55.16.55a1.27,1.27,0,0,0,.81-.19c.69-.62,1.31-1.28,2-1.93a3,3,0,0,1,.9-.82c1.24-.58,2.53-1.11,3.82-1.59a1.92,1.92,0,0,0,1.31-2c.14-1.47.43-2.95.66-4.65M29.34,127.9c-1.24,1-2.5,2-3.7,3.08-.18.16-.11.81.07,1.06.69.9,1.61,1.65,2.23,2.62,1.24,1.88,2.07,2.09,3.93.83A14.83,14.83,0,0,1,35,133.6c1.59-.57,1.72-2,1.24-3.31-.05-.09-.25-.23-.32-.18-1.31.69-2.94.85-3.86,2.23A6.73,6.73,0,0,1,31,133.81a4.06,4.06,0,0,1-1.54.39,5.29,5.29,0,0,1,.39-1A14.8,14.8,0,0,1,31,131.58a2.76,2.76,0,0,0-.55-3.75c-.23-.14-.62,0-1.06.07m44.48-17.35c-.87-.28-1.77-.55-2.64-.81-1.29-.39-2.14-.09-2.41.83-.1.32,0,.74-.14,1-.58,1-1.24,1.86-1.84,2.81-.14.23-.3.71-.19.85A4.62,4.62,0,0,0,69.52,117c1.52.21,1.71-1.22,2.58-1.79.57-.37,1-1,1.54-1.43s1.17-.48,1.65-.85a5.65,5.65,0,0,0,.95-1.31L74.83,111a8.78,8.78,0,0,1-1-.46m9,4.59c-.55-.29-1.11-.66-1.68-.89a1.76,1.76,0,0,0-2,.16,4.81,4.81,0,0,1-1.45.94c-1.82.64-2.65,2.18-3.43,3.72-.41.83.21,1.52,1.15,1.84,2.19.79,3.5-.59,4.94-1.72a14.18,14.18,0,0,1,2-1.33c1.47-.81,1.63-1.47.39-2.72m-33.22,8.39c.12.46.21.76.81.37,1.42-.89,2.94-1.61,4.32-2.55a8.22,8.22,0,0,0,2.39-2.18,6.2,6.2,0,0,1,2.34-2.55.91.91,0,0,0,.28-.83,1.05,1.05,0,0,0-.9-.3,6.66,6.66,0,0,0-1.74,1,21.88,21.88,0,0,1-6,4.14c-1.58.6-1.88,1.24-1.54,2.87M47,125.35v-.78c0-.81.07-1.29-1.13-.9-2.67.88-4.48,2.9-6.6,4.51-.48.34-.32,1.54-.46,2.34.44-.14.9-.25,1.36-.37.18,0,.41,0,.58-.07,2.16-1.4,4.59-2.41,6.25-4.71m16-13c-.46.23-.92.48-1.4.71,0,0,.07.21.07.21a10.8,10.8,0,0,0,1.81-.53c.28-.12.09-.42-.48-.39M58.88,25.73a1.2,1.2,0,0,0-.11-.23c0,.07-.07.16.11.23m2.42,87.69s-.1-.07-.14-.09,0,.14.14.09m-14.14,10a.55.55,0,0,0,.09-.14c-.07,0-.14,0-.09.14m33.21-12.53-.13-.09c0,.07,0,.14.13.09m59.88-55.51a.37.37,0,0,1-.09.14c.07,0,.14,0,.09-.14m.81-1-.14-.1c0,.07,0,.14.14.1M58.65,25.27a.37.37,0,0,0,.09-.14c-.07,0-.13,0-.09.14m28.85-5.4s.09.07.14.09,0-.14-.14-.09"/><path class="cls-1" d="M43.6,35.15a2.9,2.9,0,0,1-.05-.62,2.81,2.81,0,0,1,.05.62"/><path class="cls-1" d="M109.11,83.19a.89.89,0,0,1,.41,0,1.69,1.69,0,0,1-.41,0"/><path class="cls-1" d="M138.76,57.17a.39.39,0,0,1-.21-.09.39.39,0,0,1,.21.09"/><path class="cls-1" d="M115.54,113.54c0-.07-.07-.17,0-.17a.35.35,0,0,1,0,.17"/><path class="cls-1" d="M126.58,69.86c0-.07-.07-.16,0-.16a.27.27,0,0,1,0,.16"/><path class="cls-1" d="M118.53,75.84c.09,0,.16-.07.18,0a.34.34,0,0,1-.18,0"/><path class="cls-1" d="M53.09,42.23c0-.07.07-.09.14-.09a.14.14,0,0,1-.14.09"/><path class="cls-1" d="M86.65,17.22c0-.06,0-.13.07-.2a.37.37,0,0,1-.07.2"/><path class="cls-1" d="M53.94,17.06c.07,0,.14,0,.21.07a.35.35,0,0,1-.21-.07"/><path class="cls-1" d="M55.09,16.72a.48.48,0,0,1-.21-.09.39.39,0,0,1,.21.09"/><path class="cls-1" d="M62.51,16.3c0-.06,0-.13.07-.2a.31.31,0,0,1-.07.2"/><path class="cls-1" d="M52.1,15.34a.48.48,0,0,1-.21-.09.39.39,0,0,1,.21.09"/><path class="cls-1" d="M55.78,15c0-.06.11-.06.18-.06s-.09.06-.18.06"/><path class="cls-1" d="M54.47,14.31c.07,0,.07.06.07.13a.11.11,0,0,1-.07-.13"/><path class="cls-1" d="M53.71,17.52c.07,0,.14,0,.21.07a.35.35,0,0,1-.21-.07"/><path class="cls-1" d="M55.73,7.64c0,.05-.09.07-.16.07s.07-.09.16-.07"/><path class="cls-1" d="M67.34,6.19A.26.26,0,0,1,67.41,6a.35.35,0,0,1-.07.21"/><path class="cls-1" d="M63.55,3a.18.18,0,0,1-.16.07s.07-.09.16-.07"/><path class="cls-1" d="M141.13,47.34c0-.07,0-.14.06-.21a.42.42,0,0,1-.06.21"/><path class="cls-1" d="M52.4,43.84c0-.07.07-.09.14-.09a.14.14,0,0,1-.14.09"/><path class="cls-1" d="M96.3,43.27c.07,0,.07.07.07.14s-.09-.07-.07-.14"/><path class="cls-1" d="M53.09,42.81c.07,0,.07.07.07.14a.12.12,0,0,1-.07-.14"/><path class="cls-1" d="M97.45,40.9c0-.07,0-.14.07-.21a.35.35,0,0,1-.07.21"/><path class="cls-1" d="M45.21,31.48c.09-.05.16-.07.18-.05a.36.36,0,0,1-.18.05"/><path class="cls-1" d="M55.27,31.08c0,.05-.09.07-.16.07s.07-.09.16-.07"/><path class="cls-1" d="M89.29,28.72a.33.33,0,0,1-.09.2.39.39,0,0,1,.09-.2"/><path class="cls-1" d="M139.22,56.53c0-.07-.07-.16-.05-.16a.27.27,0,0,1,.05.16"/><path class="cls-1" d="M51,27c.07,0,.07.07.07.14A.12.12,0,0,1,51,27"/><path class="cls-1" d="M51.41,26.37a.39.39,0,0,1-.21-.09.39.39,0,0,1,.21.09"/><path class="cls-1" d="M51.64,25.91a.39.39,0,0,1-.21-.09.39.39,0,0,1,.21.09"/><path class="cls-1" d="M60.84,17.68c.09,0,.16-.07.18,0a.43.43,0,0,1-.18,0"/><path class="cls-1" d="M44.75,32.26a1.92,1.92,0,0,1,.41-.62,1.3,1.3,0,0,1,0,.62h-.47"/><path class="cls-1" d="M44,33.77a2.17,2.17,0,0,1-.39.14c0-.09,0-.2,0-.3a1.45,1.45,0,0,0,.37.16"/><path class="cls-1" d="M52.79,14a4.13,4.13,0,0,1-.37.2c0-.13,0-.3.09-.36l.28.16"/><path class="cls-1" d="M50.33,26.83a.42.42,0,0,1,.3-.16.59.59,0,0,0,0,.14.79.79,0,0,1-.35,0"/><path class="cls-1" d="M54.47,16.83c.09.05.11.19.14.3l-.14.05a.6.6,0,0,1,0-.35"/><path class="cls-1" d="M55.78,14.88a1.26,1.26,0,0,1-.21-.32.39.39,0,0,0,.14-.05c0,.12,0,.21.07.37"/><path class="cls-1" d="M118.3,76.16c0-.06.09-.16.18-.16s0,.16,0,.16h-.24"/><path class="cls-1" d="M108.88,83.52c0-.07.09-.16.18-.16s0,.16,0,.16h-.24"/><path class="cls-1" d="M46.81,37.45a10.4,10.4,0,0,1-1.15-.8c.4,0,.76.09,1.13.11a7.23,7.23,0,0,1,1.4,0,2.23,2.23,0,0,1,1.13.8,5.29,5.29,0,0,1,.44,1.29c.16.48,0,.87-.49.62a25,25,0,0,1-2.43-1.73s.07-.2,0-.32"/><path class="cls-1" d="M63.36,11a2.12,2.12,0,0,1,0-.76,24,24,0,0,1,1.7-3.54,8.13,8.13,0,0,1,2-1.63c.07,0,.21,0,.3,0a1,1,0,0,1,0,.39,3.7,3.7,0,0,0-.18.71,4.42,4.42,0,0,1-.35,1.1c-.14-.06-.21-.06-.28-.09l.21.14a31.5,31.5,0,0,0-1.49,2.8c-.32.79-.16,1.84-.62,2.49a27.91,27.91,0,0,1-3.11,3.42.82.82,0,0,1-.78,0,4.15,4.15,0,0,0-4.34.6,7.09,7.09,0,0,1-1.4.57c0-.11,0-.23,0-.39.44-.59.85-1.15,1.26-1.67a.59.59,0,0,0-.27-.23c1.08-.53,2.23-1.08,3.38-1.61.66-.3.5.09.3.41a1.06,1.06,0,0,0-.28-.09l.21.14c-.21.2-.44.39-.67.59.07,0,.16.12.18.1A6.07,6.07,0,0,0,60,14c.69-.51,1.4-1,2.07-1.61.44-.39.85-.83,1.33-1.31a1.11,1.11,0,0,1,.23-.3.35.35,0,0,0,.07-.21.67.67,0,0,1-.18.21,1,1,0,0,0-.19.23m-4.71,3.22a.34.34,0,0,1-.09.13c.07,0,.14,0,.09-.13M66.7,6.65a.55.55,0,0,0,.09-.14c-.07,0-.14,0-.09.14"/></g></g></g></svg>