<?xml version="1.0" encoding="UTF-8"?>
<svg width="124px" height="124px" viewBox="0 0 124 124" version="1.1" xmlns="http://www.w3.org/2000/svg" xmlns:xlink="http://www.w3.org/1999/xlink">
    <!-- Generator: Sketch 42 (36781) - http://www.bohemiancoding.com/sketch -->
    <title>Slogo</title>
    <desc>Created with Sketch.</desc>
    <defs></defs>
    <g id="Symbols" stroke="none" stroke-width="1" fill="none" fill-rule="evenodd">
        <g id="Slogo">
            <g id="Group-2" transform="translate(23.000000, 8.000000)">
                <path d="M56.7074107,3.495 L58.4544107,21.089 L53.6147208,28.8971328 L45.3746321,29.2063813 L37.8654107,32.693 L12.9104107,45.794 L8.24048447,36.8698078 L6.84323926,28.1934254 C6.90991952,27.9564508 8.62400573,21.8647699 8.62400573,21.8647699 L10.1654107,19.466 L14.0334107,14.975 L18.5254107,10.233 C18.5254107,10.233 21.3944107,7.613 21.7694107,7.239 C22.1444107,6.865 25.7624107,5.118 26.2614107,4.743 C26.7614107,4.369 30.2291596,3.016753 30.2291596,3.016753 L34.4974107,2.247 C34.4974107,2.247 38.1650382,1 38.6640382,1 L42.0410224,1 L46.8037868,1 L51.9654107,1.624 L56.7074107,3.495 Z" id="Fill-1" fill="#FFFFFF"></path>
                <path d="M11.3794107,44.226 L17.3124107,49.591 C17.3124107,49.591 20.0918254,52.2664088 20.4658254,52.6404088 C20.8398254,53.0154088 23.3014107,53.958 23.6754107,54.083 C24.0504107,54.208 26.7954107,54.707 27.2944107,54.832 C27.7934107,54.956 30.4144107,56.83 30.4144107,56.83 L34.9684107,57.703 L37.7754107,59.324 L41.6444107,60.822 L44.2644107,61.821 L45.8864107,62.569 C45.8864107,62.569 47.8824107,63.068 48.2574107,63.442 C48.6314107,63.817 52.7494107,64.815 53.3724107,65.065 C53.9964107,65.314 56.1174107,67.31 56.1174107,67.31 L59.8604107,69.182 C59.8604107,69.182 59.4334107,70.429 59.3354107,70.804 C59.2374107,71.178 63.2304107,71.926 63.2304107,71.926 L72.8374107,67.934 C72.8374107,67.934 75.4584107,65.314 75.5834107,64.939 C75.7084107,64.564 70.7174107,57.165 70.7174107,57.165 L67.2224107,53.709 L64.3524107,51.463 L60.7344107,48.344 L57.1264107,46.847 L48.7564107,42.404 L43.4824107,39.61 L39.6474107,36.989 L37.0274107,31 L11.3794107,44.226 Z" id="Fill-3" fill="#FFFFFF"></path>
                <path d="M75.4044107,64 L59.3924107,70.065 L59.3924107,75.1927159 L58.8414107,77.553 L57.7853649,79.2409547 L56.1455065,80.548 L54.4446248,82.294 L50.2314107,84.165 L45.1154107,89.033 C45.1154107,89.033 41.3724107,96.894 41.2474107,97.269 C41.1224107,97.64 41.2474107,99.388 41.2474107,99.388 L37.3794107,108.247 L50.3564107,107.372 L58.8414107,103.63 L66.4432555,98.1840198 L74.1884107,88.532 L77.4324107,77.553 L77.4324107,70.065 L75.4044107,64 Z" id="Fill-5" fill="#FFFFFF"></path>
                <polyline id="Fill-7" fill="#FFFFFF" points="21.2184107 66 27.7064107 75.484 31.8234107 78.852 35.6924107 80.849 42.723742 83.959 45.8984251 83.959 48.6414107 83.959 52.219314 83.4408267 47.5464107 90.33 40.0594107 102.059 41.4174767 108.113411 24.7114107 104.556 21.2184107 103.182 17.5818343 102.059 13.5568953 100.079066 10.5146139 97.9621174 7.37469542 94.4305413 3.37541075 89.9296217 2.18920701 86.4805193 1.37941075 82.596 4.49841075 74.484 21.7174107 66"></polyline>
                <path d="M9.63074628,98.1304046 C8.90973779,98.3270433 8.45092109,98.1631802 8.25428241,97.6388104 C8.05764373,97.1144405 7.861008,96.6228512 7.66436933,96.1640276 C7.46773065,95.8362965 7.10723181,95.2955483 6.582862,94.5417667 C6.05849219,93.7879851 5.73076598,93.312782 5.59967353,93.1161434 C5.5341273,93.0505971 5.20640108,92.8211888 4.61648505,92.4279114 C4.02656901,92.0346341 3.66607018,91.7724531 3.53497772,91.6413606 C3.33833905,91.5102682 3.07615807,91.0514515 2.74842694,90.2648968 C2.42069581,89.4783421 2.07658329,88.6262539 1.71607904,87.7086067 C1.3555748,86.7909596 1.04423489,85.9060988 0.78204999,85.0539979 C0.519865085,84.2018969 0.388774599,83.6447623 0.388774599,83.3825774 C0.323228373,82.5960227 0.601795656,81.7439346 1.2244848,80.8262874 C1.84717395,79.9086402 2.32237696,79.0893247 2.6501081,78.3683162 C2.78120055,78.2372238 2.92867734,77.8767249 3.09254291,77.2868089 C3.25640848,76.6968929 3.37111265,76.336394 3.43665888,76.2053016 C3.56775133,75.4842931 3.78077337,74.8943859 4.07573139,74.4355623 C4.3706894,73.9767387 4.78034717,73.8128756 5.30471698,73.9439681 L6.28790546,73.0590984 C7.00891395,72.5347286 7.64798007,72.1742298 8.20512299,71.9775911 C8.76226591,71.7809524 9.49964989,71.4859988 10.4172971,71.0927215 C11.859314,70.1750743 13.1538326,69.3229862 14.3008915,68.5364314 C15.4479505,67.7498767 16.9718774,66.9633338 18.872718,66.1767791 C19.1349029,65.7179555 19.4134701,65.5377061 19.7084282,65.6360254 C20.0033862,65.7343448 20.413044,65.7835037 20.9374138,65.7835037 C21.4617836,65.8490499 21.904214,65.9145952 22.2647182,65.9801414 C22.6252224,66.0456876 22.9365624,66.3734138 23.1987473,66.9633299 C23.3298397,67.0944223 23.5100891,67.4713075 23.7395009,68.0939966 C23.9689127,68.7166858 24.1163895,69.0935709 24.1819357,69.2246634 C24.3130282,69.6179407 24.5424365,70.0275985 24.8701677,70.453649 C25.1978988,70.8796994 25.4600798,71.2565846 25.6567184,71.5843157 C25.8533571,71.7809544 26.0991518,72.0922943 26.3941098,72.5183448 C26.6890678,72.9443952 27.0004077,73.3868256 27.3281389,73.8456492 C27.65587,74.3044728 27.9508236,74.6977443 28.2130085,75.0254754 C28.4751934,75.3532065 28.6390565,75.5498423 28.7046027,75.6153885 C29.8188886,76.926313 30.949544,77.8603327 32.096603,78.4174756 C33.2436619,78.9746186 34.5709531,79.5809121 36.0785163,80.2363743 C36.7995248,80.6296517 37.5860677,81.0884684 38.4381686,81.6128382 C39.2902696,82.137208 40.1095851,82.4321616 40.8961398,82.4977078 L49.4498796,83.0876209 C49.580972,83.1531671 49.9906298,83.0712356 50.6788652,82.8418238 C51.3671006,82.612412 51.8750762,82.4321626 52.2028073,82.3010701 C52.9238158,82.0388852 53.6775861,81.5800685 54.4641408,80.9246063 C55.2506955,80.269144 55.9553069,79.53176 56.577996,78.7124322 C57.2006852,77.8931044 57.6922745,77.0082436 58.0527787,76.0578233 C58.413283,75.107403 58.5935324,74.2061559 58.5935324,73.354055 C58.5279862,72.4364078 58.1674873,71.5351607 57.5120251,70.6502867 C56.8565628,69.7654126 56.0536336,68.9460971 55.1032133,68.1923155 C54.152793,67.4385339 53.1532281,66.7994678 52.1044885,66.275098 C51.0557488,65.7507281 50.1053428,65.3902293 49.2532419,65.1935906 L48.5158505,65.1935906 C48.1553463,65.1935906 47.9095516,65.160818 47.7784592,65.0952718 C47.6473667,65.0297256 47.5490489,64.9641803 47.4835026,64.8986341 L47.1885461,64.6036775 C46.2708989,64.0137615 45.271334,63.5385585 44.1898212,63.1780543 C43.1083085,62.81755 42.0431983,62.4078922 40.9944587,61.9490687 C40.8633662,61.8835224 40.5520263,61.7360456 40.0604296,61.5066338 C39.5688329,61.277222 39.0608573,61.0478137 38.5364875,60.8184019 C38.0121177,60.5889901 37.5205284,60.3595818 37.0617048,60.13017 L36.1768351,59.6877352 C34.0138097,58.770088 31.818044,57.9835451 29.5894724,57.3280828 C27.3609007,56.6726206 25.1979076,55.8860776 23.1004284,54.9684305 C21.4617728,54.3129682 19.9214595,53.4772664 18.4794426,52.4612999 C17.0374256,51.4453334 15.6609755,50.3802232 14.350051,49.2659373 C14.0223198,48.9382062 13.5962758,48.6268663 13.0719059,48.3319083 C12.5475361,48.0369502 12.1542647,47.6600651 11.8920798,47.2012415 C10.3845166,44.4483 9.04083909,41.7117861 7.86100702,38.9916177 C6.68117495,36.2714493 6.02572252,33.3382997 5.89463007,30.1920809 C5.76353762,26.3903997 6.59923946,23.080365 8.40176068,20.2618772 C10.2042819,17.4433895 12.3508886,14.7888072 14.8416452,12.2980506 C14.9071914,12.1669581 15.1693724,11.8556182 15.628196,11.3640215 C16.0870196,10.8724248 16.5786089,10.3644492 17.1029787,9.8400794 L19.462631,7.48042705 C20.3802782,6.62832611 21.5109337,5.82539689 22.8546313,5.07161529 C24.1983289,4.31783368 25.5256201,3.67876757 26.8365446,3.15439776 L27.3281389,3.2527166 C30.6054502,1.81069963 34.1612796,0.860293605 37.9957338,0.401470022 C41.8301881,-0.0573535613 45.6154258,-0.122898804 49.3515607,0.204832327 L50.0397927,0.204832327 C50.1708851,0.270378553 50.482225,0.368696417 50.9738217,0.49978887 C51.4654184,0.630881322 52.0061667,0.778358119 52.5960827,0.942223684 C53.1859987,1.10608925 53.7431333,1.23717974 54.2675031,1.33549907 C54.7918729,1.43381841 55.1195991,1.48297735 55.2506916,1.48297735 C55.381784,1.54852357 55.7095103,1.58129619 56.2338801,1.58129619 L57.2170685,1.58129619 L57.7086628,2.17120928 C57.7086628,2.43339418 57.7250491,2.87582457 57.7578222,3.49851372 C57.7905953,4.12120287 57.8233679,4.7766553 57.8561411,5.46489068 C57.8889142,6.15312605 57.9216868,6.80857848 57.9544599,7.43126763 C57.987233,8.05395678 58.0036193,8.49638717 58.0036193,8.75857207 C58.0036193,9.02075698 58.0363919,9.62705047 58.1019382,10.5774708 C58.1674844,11.527891 58.249416,12.5438423 58.3477353,13.625355 C58.4460546,14.7068678 58.5443725,15.7392053 58.6426918,16.7223987 C58.7410112,17.7055921 58.7901701,18.3282719 58.7901701,18.5904568 L58.7901701,19.9669207 C58.8557163,20.0980132 58.9704205,20.3601941 59.1342861,20.7534715 C59.2981516,21.1467488 59.3800832,21.3761572 59.3800832,21.4417034 C59.3800832,21.5072496 59.314538,21.6547264 59.1834455,21.8841382 C59.052353,22.11355 58.9540352,22.2937994 58.888489,22.4248919 C57.9708418,24.784556 56.9876631,26.5706639 55.9389235,27.7832691 C54.8901839,28.9958743 54.0708684,29.6021678 53.4809523,29.6021678 C50.9901957,29.5366215 48.6961122,29.6185531 46.598633,29.8479649 C44.5011538,30.0773767 42.403706,30.7164428 40.3062267,31.7651824 C39.7818569,32.0929136 39.5032897,32.4697987 39.4705165,32.8958492 C39.4377434,33.3218996 39.0936309,33.5349217 38.4381686,33.5349217 C38.5037149,33.6660141 38.6020327,33.8462636 38.7331252,34.0756753 C38.8642176,34.3050871 38.9625355,34.4525639 39.0280817,34.5181102 C40.27346,35.8945809 41.3877292,37.0416227 42.3709225,37.9592698 C43.3541159,38.876917 44.3536809,39.6634599 45.3696474,40.3189222 C46.3856139,40.9743844 47.4671104,41.5806779 48.6141694,42.1378209 C49.7612283,42.6949638 51.1212921,43.3012573 52.6944016,43.9567195 C52.7599478,43.9567195 52.9565835,44.0386511 53.2843146,44.2025167 C53.6120458,44.3663822 53.9725446,44.5302453 54.365822,44.6941109 C54.7590993,44.8579765 55.1195982,45.0218396 55.4473293,45.1857051 C55.7750604,45.3495707 55.9716961,45.4642749 56.0372424,45.5298211 C56.1027886,45.5298211 56.3485833,45.6117526 56.7746337,45.7756182 C57.2006842,45.9394838 57.4792515,46.054188 57.6103439,46.1197342 L58.7901701,46.7096473 C59.3145399,46.9718322 59.8225155,47.2503995 60.3141122,47.5453575 C60.8057089,47.8403155 61.2481393,48.1024965 61.6414167,48.3319083 C62.034694,48.56132 62.2641024,48.7087968 62.3296486,48.7743431 C62.5262873,48.9054355 62.9523314,49.2331617 63.6077936,49.7575315 L65.8199677,51.5272708 C66.6392955,52.1827331 67.4749974,52.8545718 68.3270983,53.5428072 C69.1791993,54.2310426 69.8674243,54.8045634 70.3917941,55.263387 C70.5228866,55.3289332 70.703136,55.47641 70.9325478,55.7058218 C71.1619596,55.9352336 71.3094364,56.115483 71.3749826,56.2465755 C73.4724618,59.0650632 75.061934,61.7196456 76.1434467,64.2104022 C77.2249595,66.7011587 77.8312529,69.6506947 77.9623454,73.0590984 C78.1589841,77.843973 77.5854632,81.8094602 76.2417656,84.955679 C74.8980679,88.1018979 73.374141,90.4942992 71.6699392,92.1329549 C71.5388467,92.2640473 71.3585973,92.509842 71.1291855,92.8703462 C70.8997737,93.2308505 70.7522969,93.4110999 70.6867507,93.4110999 C68.6548177,97.0161423 66.1968711,99.7526562 63.3128371,101.620724 C60.4288031,103.488791 57.0532231,105.045491 53.1859958,106.290869 C53.0549033,106.356415 52.7435634,106.471119 52.2519667,106.634985 C51.76037,106.79885 51.4162575,106.946327 51.2196188,107.07742 C50.5641566,107.405151 49.6465232,107.667332 48.4666911,107.863971 C47.286859,108.060609 46.0251131,108.224472 44.6814155,108.355565 C43.3377178,108.486657 42.0595856,108.568589 40.8469804,108.601362 C39.6343752,108.634135 38.6675829,108.617749 37.9465744,108.552202 C32.9650612,108.224471 28.0327817,107.175747 23.1495878,105.405999 C18.266394,103.636251 13.7601585,101.211077 9.63074628,98.1304046 Z M6.7794997,76.1069827 C6.7794997,76.2380752 6.81227232,76.336393 6.87781854,76.4019393 C6.87781854,76.5985779 6.97613641,76.9918494 7.17277509,77.5817654 C7.36941377,78.1716815 7.58243581,78.7943613 7.8118476,79.4498235 C8.04125939,80.1052858 8.27066774,80.7279656 8.50007953,81.3178816 C8.72949132,81.9077977 8.90974074,82.3338418 9.04083319,82.5960267 C9.10637942,82.7271191 9.23746991,83.038459 9.43410858,83.5300557 C9.63074726,84.0216524 9.79461037,84.3657649 9.92570282,84.5624036 C10.1878877,84.8901347 10.4992276,85.3653378 10.8597319,85.9880269 C11.2202361,86.6107161 11.4332582,86.922056 11.4988044,86.922056 C11.7609893,87.2497871 12.1214881,87.6430585 12.5803117,88.1018821 C13.0391353,88.5607057 13.497952,89.0359087 13.9567756,89.5275054 C14.4155992,90.0191021 14.8416432,90.4615325 15.2349206,90.8548099 C15.628198,91.2480872 15.8903789,91.4774956 16.0214714,91.5430418 C16.2181101,91.6741343 16.5786089,91.9035426 17.1029787,92.2312737 C17.6273485,92.5590049 18.2008694,92.8867311 18.8235585,93.2144622 C19.4462477,93.5421933 20.0361549,93.8535332 20.5932978,94.1484913 C21.1504407,94.4434493 21.5600985,94.6236987 21.8222834,94.6892449 C25.5584183,96.3279006 29.2617245,97.4913286 32.9323132,98.179564 C36.6029018,98.8677994 40.4045259,99.3430024 44.3372995,99.6051873 L51.4162565,100.096782 C51.6128952,100.096782 52.022553,100.064009 52.6452421,99.9984627 C53.2679313,99.9329165 53.677589,99.8673712 53.8742277,99.801825 C56.1027994,99.3430014 58.085543,98.8022532 59.822518,98.179564 C61.559493,97.5568749 63.1489651,96.7867183 64.5909821,95.8690711 C66.0329991,94.9514239 67.3766766,93.8535411 68.6220549,92.5753897 C69.8674332,91.2972383 71.1455654,89.7733114 72.4564899,88.0035633 C72.4564899,87.8724708 72.5711941,87.6266762 72.8006059,87.2661719 C73.0300177,86.9056677 73.1774945,86.659873 73.2430407,86.5287806 C73.8329567,85.9388645 74.1934556,85.3981163 74.324548,84.9065196 C74.4556405,84.4149229 74.6850488,83.7430841 75.01278,82.8909832 C75.5371498,81.1867813 75.864876,79.6136955 75.9959684,78.1716785 C76.1270609,76.7296615 76.1270609,75.0582578 75.9959684,73.1574173 C75.9304222,71.322123 75.7665591,69.7162645 75.5043742,68.3397938 C75.2421893,66.963323 74.8489178,65.6524181 74.324548,64.4070398 C73.8001782,63.1616615 73.1447258,61.9163019 72.3581711,60.6709236 C71.5716164,59.4255453 70.6212103,58.0490952 69.5069245,56.541532 C69.5069245,56.4759858 69.4249929,56.3940543 69.2611274,56.2957349 C69.0972618,56.1974156 69.0153303,56.115484 69.0153303,56.0499378 C68.6220529,55.7877529 68.0813047,55.3780951 67.3930693,54.8209522 C66.7048339,54.2638093 66.0002225,53.7066747 65.2792141,53.1495318 C64.5582056,52.5923889 63.8863668,52.0844132 63.2636777,51.6255897 C62.6409885,51.1667661 62.1985581,50.8390399 61.9363732,50.6424012 C61.7397346,50.5113087 61.4611673,50.314673 61.100663,50.0524881 C60.7401588,49.7903032 60.3468873,49.5117359 59.9208369,49.2167779 C59.4947864,48.9218199 59.1015149,48.6596389 58.7410107,48.4302271 C58.3805064,48.2008153 58.1674844,48.0533385 58.1019382,47.9877923 C57.9708457,47.9222461 57.6103469,47.758383 57.0204308,47.496198 C56.4305148,47.2340131 55.9716981,47.0373774 55.643967,46.906285 C55.3817821,46.8407387 54.8082612,46.5621715 53.9233871,46.0705748 C53.0385131,45.5789781 52.0881071,45.0710024 51.0721406,44.5466326 C50.0561741,44.0222628 49.0893817,43.5142872 48.1717346,43.0226905 C47.2540874,42.5310938 46.6641802,42.2197539 46.4019953,42.0886614 C45.2877095,41.6298378 44.1242814,41.0399307 42.9116762,40.3189222 C41.699071,39.5979137 40.5848019,38.7785981 39.5688354,37.860951 C38.5528689,36.9433038 37.717167,35.9109662 37.0617048,34.7639073 C36.4062425,33.6168483 36.0457437,32.387875 35.9801975,31.0769505 C35.849105,28.6517401 36.324308,26.7509281 37.4058207,25.3744573 C38.4873335,23.9979866 39.8801699,22.965649 41.5843718,22.2774136 C43.2885736,21.5891783 45.1729994,21.1467479 47.2377055,20.9501092 C49.3024116,20.7534705 51.2851552,20.62238 53.1859958,20.5568338 C53.5137269,20.5568338 54.1200204,20.5240612 55.0048945,20.4585149 C55.8897685,20.3929687 56.3977442,20.3274235 56.5288366,20.2618772 C56.7910215,20.2618772 56.922112,20.1307868 56.922112,19.8686019 L56.7254743,14.7560218 C56.7254743,13.7728284 56.709088,12.8879676 56.6763149,12.1014129 C56.6435418,11.3148582 56.5943828,10.5447016 56.5288366,9.79091997 C56.4632904,9.03713837 56.3977451,8.26698177 56.3321989,7.48042705 C56.2666527,6.69387234 56.1355622,5.77623894 55.9389235,4.72749932 C55.8733773,4.59640687 55.7586731,4.28506696 55.5948076,3.79347027 C55.430942,3.30187357 55.1851473,3.02330629 54.8574162,2.95776006 C54.7263237,2.89221383 54.4313702,2.79389597 53.9725466,2.66280352 C53.513723,2.53171107 53.1859968,2.40062058 52.9893581,2.26952813 C52.5960807,2.13843568 51.9570146,1.99095888 51.0721406,1.82709331 C50.1872665,1.66322775 49.6792909,1.58129619 49.5481984,1.58129619 C46.7952569,1.38465752 43.9276525,1.38465752 40.9452993,1.58129619 C37.962946,1.77793487 35.0461827,2.26952419 32.1949218,3.05607891 C29.343661,3.84263362 26.6890786,4.92413013 24.2310952,6.30060088 C21.7731117,7.67707163 19.7248228,9.44679319 18.0861672,11.6098187 C16.1853266,14.1005752 14.8252628,16.5093629 14.005935,18.836254 C13.1866072,21.163145 12.8424946,23.9324315 12.9735871,27.1441966 C12.9735871,27.6685664 13.0063597,28.3240188 13.0719059,29.1105735 C13.1374522,29.8971283 13.1702248,30.3231723 13.1702248,30.3887186 C13.1702248,30.519811 13.2193837,30.7492194 13.3177031,31.0769505 C13.4160224,31.4046816 13.5307266,31.63409 13.661819,31.7651824 C14.9727436,34.5836701 16.578602,36.9596852 18.4794426,38.8932989 C20.3802831,40.8269126 22.5760488,42.645793 25.0668054,44.3499949 L26.0499938,44.8415892 C26.5743636,45.1037741 26.9020899,45.3004098 27.0331823,45.4315022 C27.0987285,45.4970485 27.3281369,45.7428431 27.7214142,46.1688936 C28.1146916,46.5949441 28.3768726,46.8407387 28.507965,46.906285 C28.7701499,47.1029236 29.1798077,47.3651046 29.7369506,47.6928357 C30.2940935,48.0205669 30.8840007,48.3482931 31.5066899,48.6760242 C32.129379,49.0037554 32.7028999,49.3314816 33.2272697,49.6592127 C33.7516395,49.9869438 34.1121384,50.1835796 34.308777,50.2491258 C34.8331469,50.4457645 35.7835529,50.8226496 37.1600236,51.3797925 C38.5364944,51.9369355 39.994876,52.5104563 41.5352123,53.1003724 C43.0755487,53.6902884 44.5339303,54.2638093 45.9104011,54.8209522 C47.2868718,55.3780951 48.2700505,55.7549803 48.8599665,55.9516189 C48.9255127,55.9516189 49.0729895,56.0171642 49.3024013,56.1482566 C49.5318131,56.2793491 49.6792899,56.3448943 49.7448361,56.3448943 C50.1381135,56.6726255 50.7116344,57.0822832 51.465416,57.5738799 C52.2191976,58.0654766 52.6616279,58.3768165 52.7927204,58.507909 C53.0549053,58.7045477 53.4481768,59.0814328 53.9725466,59.6385757 C54.4969164,60.1957187 55.0540509,60.7692395 55.643967,61.3591556 C56.233883,61.9490716 56.7746313,62.5062062 57.266228,63.030576 C57.7578247,63.5549458 58.0691646,63.882672 58.200257,64.0137645 C59.2489966,65.324689 59.9208354,66.8813885 60.2157934,68.6839097 C60.5107514,70.4864309 60.7565461,72.1086757 60.9531848,73.5506927 C60.9531848,73.6817851 60.8876395,73.8620345 60.7565471,74.0914463 C60.6254546,74.3208581 60.5599094,74.4683349 60.5599094,74.5338812 C60.4288169,74.6649736 60.2649538,75.0418588 60.0683151,75.6645479 C59.8716764,76.2872371 59.740586,76.6641222 59.6750397,76.7952147 C58.1674765,79.9414335 56.2994371,82.0552676 54.0708654,83.1367803 C51.8422937,84.2182931 48.958303,84.6279508 45.4188068,84.3657659 C42.7314116,84.1691272 40.011284,83.5792201 37.2583425,82.5960267 C34.505401,81.6128333 31.9819091,80.2036105 29.6877912,78.3683162 C28.9667827,77.7784002 28.2130124,76.8935394 27.4264577,75.7137073 C26.639903,74.5338753 25.8533601,73.3376746 25.0668054,72.1250694 C24.2802506,70.9124642 23.510094,69.847354 22.7563124,68.9297068 C22.0025308,68.0120597 21.2979195,67.5204703 20.6424572,67.4549241 L20.2491818,67.4549241 L8.6475578,73.1574173 C8.45091912,73.2885097 8.1068066,73.5834633 7.6152099,74.0422869 C7.12361321,74.5011105 6.87781854,74.8288367 6.87781854,75.0254754 C6.81227232,75.0910216 6.7794997,75.1565669 6.7794997,75.2221131 L6.7794997,76.1069827 Z M18.5777614,49.3642562 C18.5777614,49.8230797 18.7580108,50.2327375 19.1185151,50.5932418 C19.4790193,50.953746 19.8886771,51.2650859 20.3475007,51.5272708 C20.8063243,51.7894557 21.2979136,52.0516367 21.8222834,52.3138216 C22.3466532,52.5760065 22.7726973,52.8381875 23.1004284,53.1003724 L23.4937038,52.2155027 C23.55925,52.0188641 23.6411816,51.6583652 23.7395009,51.1339954 C23.8378203,50.6096256 23.9525244,50.052491 24.0836169,49.462575 C24.2147093,48.872659 24.3457998,48.3155244 24.4768923,47.7911546 C24.6079847,47.2667848 24.67353,46.9062859 24.67353,46.7096473 C24.5424375,46.5130086 24.2966429,46.218055 23.9361386,45.8247776 C23.5756344,45.4315003 23.1659766,45.0382288 22.707153,44.6449515 C22.2483294,44.2516741 21.805899,43.9075616 21.3798486,43.6126036 C20.9537981,43.3176455 20.6096856,43.1701688 20.3475007,43.1701688 C20.150862,43.1701688 19.93784,43.4651223 19.7084282,44.0550384 C19.4790164,44.6449544 19.2823806,45.3167932 19.1185151,46.0705748 C18.9546495,46.8243564 18.823559,47.5289677 18.7252397,48.18443 C18.6269203,48.8398922 18.5777614,49.2331637 18.5777614,49.3642562 Z M13.0719059,44.2516761 C13.1374522,45.1693232 13.6454278,46.0869566 14.5958481,47.0046038 C15.5462684,47.922251 16.4147428,48.5777034 17.2012975,48.9709808 L18.0370078,45.6281399 C18.3319658,44.4483079 18.4466699,43.3012661 18.3811237,42.1869803 C18.3811237,41.9903416 18.2500332,41.6626154 17.9878483,41.2037918 C17.7256634,40.7449682 17.4143235,40.2697652 17.0538193,39.7781685 C16.693315,39.2865718 16.3328162,38.8605277 15.972312,38.5000235 C15.6118077,38.1395192 15.3332404,37.9592698 15.1366017,37.9592698 C14.9399631,37.9592698 14.7105547,38.2214508 14.4483698,38.7458206 C14.1861849,39.2701904 13.9567766,39.9092565 13.7601379,40.6630381 C13.5634992,41.4168197 13.3996361,42.1378174 13.2685436,42.8260528 C13.1374512,43.5142882 13.0719059,43.9894912 13.0719059,44.2516761 Z M4.91144159,88.2985198 C4.97698782,89.4128057 5.37025928,90.4287569 6.09126776,91.3464041 C6.81227625,92.2640513 7.59881917,93.0833668 8.45092011,93.8043753 C8.51646633,93.6077366 8.63117051,93.2963967 8.79503607,92.8703462 C8.95890164,92.4442958 9.13915106,92.0018654 9.33578974,91.5430418 C9.53242841,91.0842182 9.69629152,90.6417878 9.82738397,90.2157374 C9.95847643,89.7896869 10.0567943,89.478347 10.1223405,89.2817083 C10.1223405,89.2161621 10.1387268,89.1342305 10.1714999,89.0359112 C10.2042731,88.9375918 10.2206594,88.8556603 10.2206594,88.7901141 C10.1551131,87.8069207 9.72906906,86.823742 8.94251435,85.8405486 C8.15595963,84.8573552 7.56605244,83.9069492 7.17277509,82.9893021 C7.04168264,83.1203945 6.86143322,83.3989618 6.63202143,83.8250123 C6.40260963,84.2510627 6.17320128,84.7098794 5.94378949,85.2014761 C5.7143777,85.6930728 5.50135566,86.1518895 5.30471698,86.57794 C5.1080783,87.0039905 5.00976044,87.3153304 5.00976044,87.511969 C4.94421421,87.5775153 4.91144159,87.6758331 4.91144159,87.8069256 L4.91144159,88.2985198 Z M20.150863,101.473245 C20.150863,102.194254 20.5441344,102.751388 21.3306892,103.144666 C22.1172439,103.537943 22.8054689,103.767352 23.395385,103.832898 L23.6903415,103.832898 C23.6247953,103.767352 23.6575679,103.701806 23.7886603,103.63626 C23.9197528,103.570714 23.985298,103.472396 23.985298,103.341304 C24.0508443,103.144665 24.1983211,102.816939 24.4277329,102.358115 C24.6571446,101.899291 24.886553,101.407702 25.1159648,100.883332 C25.3453766,100.358963 25.5583986,99.8673732 25.7550373,99.4085496 C25.951676,98.949726 26.0827665,98.6219998 26.1483127,98.4253611 C25.8205816,97.9009913 25.3126059,97.4913336 24.6243705,97.1963755 C23.9361352,96.9014175 23.3298417,96.7211681 22.8054719,96.6556219 C22.3466483,96.6556219 21.9533768,96.8358713 21.6256457,97.1963755 C21.2979146,97.5568798 21.0193473,97.9829239 20.7899355,98.4745206 C20.5605237,98.9661173 20.3966606,99.4904792 20.2983412,100.047622 C20.2000219,100.604765 20.150863,101.079968 20.150863,101.473245 Z M25.5583996,104.226173 C25.5583996,104.422812 25.7058764,104.603061 26.0008344,104.766927 C26.2957924,104.930792 26.639905,105.061883 27.0331823,105.160202 C27.4264597,105.258522 27.8033448,105.340453 28.1638491,105.405999 C28.5243533,105.471546 28.770148,105.504318 28.9012404,105.504318 L29.4911535,105.504318 C29.622246,105.504318 29.7533364,105.438773 29.8844289,105.30768 C30.0155213,104.914403 30.2121571,104.4392 30.474342,103.882057 C30.7365269,103.324914 30.9823215,102.784166 31.2117333,102.259796 C31.4411451,101.735426 31.6377809,101.27661 31.8016464,100.883332 C31.965512,100.490055 32.0474435,100.260647 32.0474435,100.1951 L32.0474435,99.7035062 C32.0474435,99.6379599 31.7852626,99.5232558 31.2608928,99.3593902 C30.736523,99.1955246 30.3432515,99.0808204 30.0810666,99.0152742 L28.9012404,98.9169554 C28.3768706,98.9169554 27.9180539,99.1135911 27.5247766,99.5068685 C27.1314992,99.9001458 26.7873867,100.375349 26.4924287,100.932492 C26.1974706,101.489635 25.9680623,102.079542 25.8041967,102.702231 C25.6403312,103.32492 25.5583996,103.832896 25.5583996,104.226173 Z M14.350051,98.9169554 C14.350051,99.2446865 14.4811415,99.5396401 14.7433264,99.801825 C15.0055113,100.06401 15.3332375,100.293418 15.7265148,100.490057 C16.1197922,100.686696 16.5130636,100.834172 16.906341,100.932492 C17.2996184,101.030811 17.6273446,101.07997 17.8895295,101.07997 C18.1517144,101.07997 18.4138954,100.883334 18.6760803,100.490057 C18.9382652,100.09678 19.1676735,99.6051903 19.3643122,99.0152742 C19.5609509,98.4253582 19.724814,97.8518373 19.8559064,97.2946944 C19.9869989,96.7375515 20.0525441,96.3278937 20.0525441,96.0657088 C20.0525441,95.8035239 19.888681,95.5413429 19.5609499,95.279158 C19.2332188,95.0169731 18.8727199,94.7875648 18.4794426,94.5909261 C18.0861652,94.3942874 17.6765074,94.214038 17.250457,94.0501724 C16.8244065,93.8863068 16.5130666,93.8043753 16.3164279,93.8043753 L16.1197902,93.8043753 C15.6609666,94.5253838 15.2349226,95.3610856 14.8416452,96.3115059 C14.4483678,97.2619262 14.2845047,98.1304007 14.350051,98.9169554 Z M49.154923,101.374927 C48.8271919,101.374927 48.3519889,101.35854 47.7292997,101.325767 C47.1066106,101.292994 46.3692266,101.276608 45.5171257,101.276608 L44.1406618,106.585825 L44.632256,107.07742 C45.0910796,106.946327 45.5171237,106.848009 45.9104011,106.782463 C46.2381322,106.716917 46.5822447,106.667758 46.942749,106.634985 C47.3032532,106.602212 47.6473657,106.553053 47.9750969,106.487507 C48.302828,106.356414 48.6469405,106.258096 49.0074448,106.19255 C49.367949,106.127004 49.6465163,105.930368 49.843155,105.602637 C49.9742474,105.340452 50.2528147,104.734159 50.6788652,103.783738 C51.1049156,102.833318 51.3834829,102.227025 51.5145754,101.96484 C51.3834829,101.899293 51.072143,101.800976 50.5805463,101.669883 C50.0889496,101.538791 49.7776097,101.440473 49.6465173,101.374927 L49.154923,101.374927 Z M40.1095891,101.178289 C39.3885806,101.964844 38.7331281,102.882477 38.1432121,103.931217 C37.5532961,104.979956 37.2583425,106.061453 37.2583425,107.175739 C38.1104434,107.241285 38.9461453,107.257671 39.7654731,107.224898 C40.5848009,107.192125 41.3877301,107.110193 42.1742849,106.979101 C42.2398311,106.848008 42.3709216,106.503896 42.5675602,105.946753 C42.7641989,105.38961 42.9608347,104.783317 43.1574733,104.127854 C43.354112,103.472392 43.5507477,102.866099 43.7473864,102.308956 C43.9440251,101.751813 44.1078882,101.4077 44.2389807,101.276608 L41.73185,101.276608 C40.9780684,101.276608 40.4373202,101.243835 40.1095891,101.178289 Z M31.1625739,105.504318 C31.1625739,105.569864 31.1953465,105.63541 31.2608928,105.700956 C31.3919852,105.832048 31.5558483,105.946752 31.752487,106.045072 L32.2440812,106.290869 C32.3096275,106.290869 32.5881947,106.323642 33.0797914,106.389188 C33.5713881,106.454734 33.9482733,106.487507 34.2104582,106.487507 L35.4886032,106.487507 L38.2415309,101.07997 C37.9137998,100.752239 37.504142,100.555603 37.0125454,100.490057 C36.5209487,100.424511 36.0785183,100.358965 35.6852409,100.293419 C34.3087702,100.227873 33.3419778,100.785008 32.7848349,101.96484 C32.227692,103.144672 31.7197163,104.258941 31.2608928,105.30768 L31.1625739,105.504318 Z M29.196197,54.7717928 C29.196197,55.0339777 29.2125833,55.263386 29.2453564,55.4600247 C29.2781295,55.6566634 29.4583789,55.8205265 29.78611,55.9516189 C30.048295,56.0827114 30.5562706,56.2301882 31.3100522,56.3940538 C32.0638338,56.5579193 32.5390368,56.6398509 32.7356755,56.6398509 C33.2600453,56.3121198 33.7680209,55.7222126 34.2596176,54.8701116 C34.7512143,54.0180107 34.997009,53.3297856 34.997009,52.8054158 L34.997009,52.6087781 C34.9314627,52.5432319 34.8495312,52.444914 34.7512119,52.3138216 C34.6528925,52.1827291 34.5381883,52.1171839 34.4070959,52.1171839 C34.2760034,52.0516377 34.0629814,51.9369335 33.7680234,51.7730679 C33.4730654,51.6092024 33.1453391,51.4453392 32.7848349,51.2814737 L31.7033276,50.7898794 C31.3428233,50.6260139 31.0970287,50.5113097 30.9659362,50.4457635 L30.6709797,50.4457635 C30.474341,50.4457635 30.2940916,50.6260129 30.130226,50.9865171 C29.9663604,51.3470214 29.8188837,51.7730655 29.6877912,52.2646622 C29.5566987,52.7562589 29.4419946,53.2478482 29.3436752,53.7394449 C29.2453559,54.2310416 29.196197,54.5751541 29.196197,54.7717928 Z M10.1223405,38.4508641 C10.1878867,39.0407801 10.3025909,39.7945504 10.4664565,40.7121976 C10.630322,41.6298447 11.0727524,42.2525245 11.7937609,42.5802557 C12.1870383,41.7281547 12.5639234,40.6958171 12.9244277,39.483212 C13.2849319,38.2706068 13.5962718,37.3038144 13.8584567,36.582806 L13.8584567,36.0912117 C13.7929105,35.9601193 13.66182,35.7143246 13.4651813,35.3538204 C13.2685427,34.9933161 13.0719069,34.6000447 12.8752683,34.1739942 C12.6786296,33.7479437 12.4819938,33.3546723 12.2853552,32.994168 C12.0887165,32.6336638 11.957626,32.3550965 11.8920798,32.1584578 L11.3021667,31.6668636 C10.9088893,32.650057 10.5975494,33.7479398 10.3681376,34.960545 C10.1387258,36.1731502 10.0567943,37.3365782 10.1223405,38.4508641 Z M9.53242743,95.279158 C9.59797366,95.4102505 9.74545045,95.6068862 9.97486225,95.8690711 C10.204274,96.131256 10.4500687,96.393437 10.7122536,96.6556219 L11.8920798,97.835448 L12.4819929,98.1304046 C12.7441778,98.261497 12.9080409,98.3598149 12.9735871,98.4253611 C13.1046796,97.5732602 13.4160195,96.6228542 13.9076162,95.5741146 C14.3992128,94.5253749 14.6450075,93.6732868 14.6450075,93.0178245 L14.5466887,92.8211868 L12.1870363,90.3632156 L12.0887175,90.3632156 C12.0231712,90.3632156 11.9740123,90.3468293 11.9412392,90.3140562 C11.9084661,90.2812831 11.8593072,90.2648968 11.7937609,90.2648968 C11.5971222,90.2648968 11.3513276,90.4943051 11.0563696,90.9531287 C10.7614116,91.4119523 10.4992306,91.9199279 10.2698188,92.4770709 C10.040407,93.0342138 9.84377127,93.574962 9.6799057,94.0993318 C9.51604014,94.6237016 9.43410858,94.9514279 9.43410858,95.0825203 L9.53242743,95.279158 Z M2.35515155,83.5792151 C2.486244,84.8901397 2.81397022,86.0044088 3.33834003,86.922056 C3.66607116,86.7909635 3.82993427,86.6271004 3.82993427,86.4304617 C4.35430408,85.5128146 4.87866602,84.5624085 5.40303583,83.5792151 C5.92740564,82.5960217 6.15681399,81.5145252 6.09126776,80.3346932 C6.02572154,79.8103234 5.96017629,79.2368025 5.89463007,78.6141133 C5.82908384,77.9914242 5.53413025,77.5489938 5.00976044,77.2868089 C4.81312176,77.61454 4.58371341,78.0241978 4.32152851,78.5157945 C4.0593436,79.0073912 3.79716263,79.5481394 3.53497772,80.1380555 C3.27279282,80.7279715 3.02699816,81.2851061 2.79758637,81.8094759 C2.56817458,82.3338457 2.42069778,82.7926624 2.35515155,83.1859397 L2.35515155,83.5792151 Z M24.9684865,53.7886043 C25.0340327,53.8541505 25.3126,54.0180136 25.8041967,54.2801985 C26.2957934,54.5423834 26.6726786,54.7062465 26.9348635,54.7717928 C26.9348635,54.837339 26.9676361,54.8701116 27.0331823,54.8701116 L27.22982,54.8701116 C27.6230974,54.9356578 27.8852783,54.6898632 28.0163708,54.1327203 C28.1474632,53.5755773 28.2457811,53.1986922 28.3113273,53.0020535 C28.4424198,52.6743224 28.5898966,52.1008015 28.7537621,51.2814737 C28.9176277,50.4621459 29.0323319,49.9869428 29.0978781,49.8558504 L29.0978781,49.3642562 C28.9667857,49.2331637 28.5571279,48.9709827 27.8688925,48.5777054 C27.1806571,48.184428 26.7709994,47.922247 26.6399069,47.7911546 L26.1483127,47.7911546 C25.8861278,48.5121631 25.6075605,49.3478649 25.3126025,50.2982852 C25.0176445,51.2487055 24.8701677,52.1827252 24.8701677,53.1003724 L24.9684865,53.7886043 Z M35.1936467,57.3280828 C35.1936467,57.393629 35.4394413,57.5411058 35.931038,57.7705176 C36.4226347,57.9999294 36.7995199,58.1801788 37.0617048,58.3112713 L37.553299,58.4095901 C37.8154839,58.4095901 37.9957333,58.3932038 38.0940527,58.3604307 C38.192372,58.3276576 38.3070762,58.1474082 38.4381686,57.8196771 C38.5037149,57.7541308 38.6348054,57.5738814 38.831444,57.2789234 C39.0280827,56.9839654 39.2247184,56.6726255 39.4213571,56.3448943 C39.6179958,56.0171632 39.7982452,55.7222096 39.9621108,55.4600247 C40.1259763,55.1978398 40.2079079,55.0012041 40.2079079,54.8701116 L40.2079079,54.7717928 C40.2079079,54.7062465 40.2242942,54.6734739 40.2570673,54.6734739 C40.2898404,54.6734739 40.3062267,54.6407013 40.3062267,54.5751551 L40.2079079,54.3785174 C40.0112692,54.2474249 39.6016115,54.0344029 38.9789223,53.7394449 C38.3562332,53.4444869 37.9465754,53.2642374 37.7499367,53.1986912 L37.3566613,53.1986912 C37.0289302,53.1986912 36.7175903,53.3297817 36.4226323,53.5919666 C36.1276742,53.8541515 35.8818796,54.1818777 35.6852409,54.5751551 C35.4886022,54.9684324 35.3411254,55.3944765 35.2428061,55.8533001 C35.1444868,56.3121237 35.0953278,56.6726225 35.0953278,56.9348074 L35.1936467,57.3280828 Z M44.7305749,60.7692425 C44.7305749,61.3591585 44.9599832,61.75243 45.4188068,61.9490687 C45.8776304,62.1457073 46.3364471,62.2767978 46.7952707,62.342344 C47.7129179,62.4078903 48.351984,61.9818462 48.7124882,61.064199 C49.0729925,60.1465519 49.4498776,59.3272363 49.843155,58.6062278 C49.2532389,57.6885807 48.3356055,57.229764 47.0902272,57.229764 C46.8280423,57.229764 46.549475,57.3444681 46.254517,57.5738799 C45.959559,57.8032917 45.697378,58.1146316 45.4679662,58.507909 C45.2385545,58.9011863 45.058305,59.3108441 44.9272126,59.7368946 C44.7961201,60.1629451 44.7305749,60.5070576 44.7305749,60.7692425 Z M48.9582853,22.1299354 C48.3028231,22.0643891 47.6801433,22.2610249 47.0902272,22.7198484 C46.5003112,23.178672 46.0087219,23.7521929 45.6154445,24.4404283 C45.2221672,25.1286636 44.9108273,25.8496613 44.6814155,26.6034429 C44.4520037,27.3572245 44.3372995,27.9962906 44.3372995,28.5206605 C44.468392,28.5862067 44.7961182,28.6189793 45.320488,28.6189793 L46.3036765,28.6189793 C46.4347689,28.5534331 46.6314046,28.4715015 46.8935895,28.3731822 C47.1557744,28.2748628 47.2868649,28.1929313 47.2868649,28.1273851 L49.5481984,22.2282542 C49.4826522,22.2282542 49.4007206,22.2118679 49.3024013,22.1790948 C49.204082,22.1463217 49.0893778,22.1299354 48.9582853,22.1299354 Z M40.0112702,59.4910975 L42.3709225,60.5726048 C42.502015,60.5070586 42.6331055,60.4087407 42.7641979,60.2776482 C42.8952904,60.1465558 43.0099946,60.0482379 43.1083139,59.9826917 C43.2066332,59.9171455 43.2885648,59.8516002 43.354111,59.786054 C43.354111,59.6549616 43.40327,59.4747121 43.5015893,59.2453003 C43.5999086,59.0158886 43.6818402,58.8684118 43.7473864,58.8028655 C43.8129326,58.6717731 44.0259547,58.2948879 44.3864589,57.6721988 C44.7469632,57.0495096 44.9599852,56.6726245 45.0255314,56.541532 L45.0255314,56.3448943 C45.0255314,55.951617 44.7305778,55.7058223 44.1406618,55.607503 C43.5507458,55.5091836 43.1247017,55.4600247 42.8625168,55.4600247 C42.1415083,55.3944785 41.4532832,55.8205226 40.797821,56.7381697 C40.1423587,57.6558169 39.8146325,58.4423598 39.8146325,59.0978221 L40.0112702,59.4910975 Z M57.7086628,100.490057 C57.6431166,100.490057 57.5939576,100.506443 57.5611845,100.539216 C57.5284114,100.571989 57.4792525,100.588376 57.4137062,100.588376 L57.2170685,100.588376 C57.0204299,100.52283 56.5779995,100.588375 55.8897641,100.785013 C55.2015287,100.981652 54.7263257,101.145515 54.4641408,101.276608 C54.3330484,101.276608 54.1364126,101.325767 53.8742277,101.424086 C53.6120428,101.522405 53.4809523,101.604337 53.4809523,101.669883 L51.6128942,105.209362 C51.8095329,105.209362 52.1044865,105.160203 52.4977639,105.061883 C52.8910412,104.963564 53.3170853,104.865246 53.7759089,104.766927 C54.2347325,104.668607 54.6771628,104.553903 55.1032133,104.422811 C55.5292638,104.291718 55.8078311,104.226173 55.9389235,104.226173 C56.8565707,103.963988 57.3973189,103.505172 57.5611845,102.849709 C57.7250501,102.194247 57.774209,101.407704 57.7086628,100.490057 Z M49.5481984,62.8339383 C49.5481984,63.3583081 49.8759246,63.7515796 50.5313869,64.0137645 C51.1868492,64.2759494 51.7767564,64.4398125 52.3011262,64.5053587 L52.4977639,64.5053587 C52.6288563,64.3742662 52.9401962,64.1120853 53.4317929,63.7188079 C53.9233896,63.3255306 54.2347295,63.0633496 54.365822,62.9322571 L54.365822,62.6373006 C54.365822,62.5717544 54.3330493,62.5062091 54.2675031,62.4406629 C54.1364107,62.178478 53.7595255,61.7196613 53.1368364,61.064199 C52.5141472,60.4087368 52.0717168,60.0154653 51.8095319,59.8843729 C51.6128932,59.6877342 51.4490301,59.5566437 51.3179377,59.4910975 L50.9246623,59.2944598 L49.8923144,61.0150396 C49.5973564,61.5066363 49.4826522,62.1129298 49.5481984,62.8339383 Z M13.0719059,16.3291233 C12.4819899,16.7879469 11.8593101,17.4597857 11.2038478,18.3446597 C10.5483856,19.2295338 9.95847839,20.1963261 9.43410858,21.2450657 C8.90973877,22.2938053 8.4836947,23.3589155 8.15596356,24.4404283 C7.82823243,25.521941 7.69714195,26.4559607 7.76268817,27.2425154 L7.76268817,28.2257039 C7.89378063,27.963519 8.12318898,27.488316 8.45092011,26.8000806 C8.77865124,26.1118452 9.00805959,25.6694149 9.13915204,25.4727762 C9.33579072,25.0139526 9.48326752,24.456818 9.58158686,23.8013558 C9.67990619,23.1458935 9.9912461,22.6543042 10.5156159,22.326573 C10.5811621,22.2610268 10.7450252,22.1954816 11.0072101,22.1299354 C11.2693951,22.0643891 11.4332582,21.9988439 11.4988044,21.9332977 C11.6298968,21.736659 11.7773736,21.3761601 11.9412392,20.8517903 C12.1051048,20.3274205 12.2689679,19.770286 12.4328334,19.1803699 C12.596699,18.5904539 12.7441758,18.0333193 12.8752683,17.5089495 C13.0063607,16.9845797 13.0719059,16.5913082 13.0719059,16.3291233 Z M7.95932587,32.8466897 C7.95932587,33.1088747 8.10680267,33.6823955 8.40176068,34.5672696 C8.6967187,35.4521436 8.90974074,36.0256645 9.04083319,36.2878494 C9.17192565,35.5012947 9.28662982,34.6983655 9.38494916,33.8790376 C9.4832685,33.0597098 9.6307453,32.2567806 9.82738397,31.4702259 C10.1551151,30.6181249 10.466455,29.831582 10.761413,29.1105735 C11.056371,28.389565 11.1710752,27.5702495 11.105529,26.6526023 L11.105529,25.0795008 C10.7777979,25.0795008 10.6139348,25.2433639 10.6139348,25.571095 C10.4828423,25.8332799 10.3025929,26.2101651 10.0731811,26.7017618 C9.8437693,27.1933585 9.61436095,27.7013341 9.38494916,28.2257039 C9.15553737,28.7500737 8.94251533,29.241663 8.74587665,29.7004866 C8.54923797,30.1593102 8.41814749,30.4214912 8.35260126,30.4870374 C8.28705503,30.6836761 8.20512348,31.0933339 8.10680414,31.716023 C8.0084848,32.3387121 7.95932587,32.7155973 7.95932587,32.8466897 Z M53.7759089,22.0316165 C53.1859928,22.162709 52.612472,22.4576626 52.055329,22.9164861 C51.4981861,23.3753097 50.9902105,23.916058 50.5313869,24.5387471 C50.0725633,25.1614363 49.7120645,25.8168887 49.4498796,26.5051241 C49.1876947,27.1933594 49.0566042,27.8324256 49.0566042,28.4223416 C49.3843353,28.4223416 49.8103794,28.3076374 50.3347492,28.0782256 C50.859119,27.8488138 51.2851631,27.7996549 51.6128942,27.9307474 L51.7112131,28.0290662 C51.7767593,26.5870492 52.0553266,25.521939 52.5469233,24.8337037 C53.03852,24.1454683 53.4809504,23.3753117 53.8742277,22.5232107 L53.7759089,22.0316165 Z M54.2675031,24.1946312 C54.1364107,24.3257236 53.9233886,24.8500856 53.6284306,25.7677327 C53.3334726,26.6853799 53.0876779,27.4719228 52.8910392,28.1273851 C53.677594,27.7996539 54.4969095,27.0458836 55.3490104,25.8660516 C56.2011114,24.6862195 56.6271555,23.5064051 56.6271555,22.326573 C56.5616092,22.3921193 56.496064,22.4248919 56.4305178,22.4248919 C56.3649715,22.4248919 56.3158126,22.4412782 56.2830395,22.4740513 C56.2502664,22.5068244 56.2011074,22.5232107 56.1355612,22.5232107 C55.9389225,22.6543032 55.6111963,22.9328705 55.1523727,23.3589209 C54.6935492,23.7849714 54.3985956,24.0635387 54.2675031,24.1946312 Z M64.1977067,98.2287234 C63.7388831,98.3598159 63.2472938,98.5072927 62.722924,98.6711583 C62.1985542,98.8350238 61.7069649,99.0316595 61.2481413,99.2610713 C60.7893177,99.4904831 60.4124326,99.8182093 60.1174746,100.24426 C59.8225165,100.67031 59.6750397,101.211059 59.6750397,101.866521 L59.6750397,102.063158 C59.9372246,101.997612 60.3468824,101.833749 60.9040253,101.571564 C61.4611683,101.309379 61.9855302,101.014426 62.4771269,100.686695 C62.9687236,100.358964 63.3947677,100.014851 63.7552719,99.6543467 C64.1157762,99.2938425 64.2960256,98.94973 64.2960256,98.6219988 C64.2960256,98.5564526 64.2796393,98.4909074 64.2468662,98.4253611 C64.214093,98.3598149 64.1977067,98.2942697 64.1977067,98.2287234 Z M40.6011833,25.1778196 C40.0768135,25.1122734 39.6343831,25.2761365 39.2738788,25.6694139 C38.9133746,26.0626912 38.618421,26.5215079 38.3890092,27.0458777 C38.1595974,27.5702475 37.9957343,28.1273821 37.897415,28.7172981 C37.7990956,29.3072142 37.7499367,29.7660309 37.7499367,30.093762 C37.7499367,30.1593082 37.766323,30.2740124 37.7990961,30.437878 C37.8318692,30.6017435 37.8482556,30.7164477 37.8482556,30.7819939 C38.569264,30.2576241 39.2247165,29.4219223 39.8146325,28.2748633 C40.4045485,27.1278044 40.6667295,26.0954668 40.6011833,25.1778196 Z M54.4641408,65.586866 C54.6607795,65.7179585 55.0704373,65.9801394 55.6931264,66.3734168 C56.3158156,66.7666942 56.6927007,67.0288751 56.8237932,67.1599676 L57.9053005,68.2414749 L58.3968947,68.2414749 C58.200256,67.389374 57.8069846,66.4881269 57.2170685,65.5377066 C56.6271525,64.5872863 56.0044727,63.8499023 55.3490104,63.3255325 C55.217918,63.5221712 55.0540549,63.8498974 54.8574162,64.308721 C54.6607775,64.7675446 54.4969144,65.0624982 54.365822,65.1935906 L54.4641408,65.586866 Z M44.2389807,23.2114427 C43.3213335,23.4736276 42.7314263,24.0799211 42.4692414,25.0303414 C42.2070565,25.9807616 41.9121029,26.8820087 41.5843718,27.7341097 C41.5188255,27.8652021 41.4205077,28.0946105 41.2894152,28.4223416 C41.1583228,28.7500727 41.1255502,28.9794811 41.1910964,29.1105735 L41.1910964,29.6021678 C41.4532813,29.4710753 41.7154623,29.3563711 41.9776472,29.2580518 C42.2398321,29.1597325 42.4364678,29.0122557 42.5675602,28.815617 L42.9116762,27.7832691 C43.0755418,27.2916724 43.2394049,26.7673105 43.4032704,26.2101675 C43.567136,25.6530246 43.7309991,25.1286627 43.8948647,24.637066 L44.2389807,23.6047181 L44.2389807,23.2114427 Z" id="Sellpy" fill="#000000"></path>
            </g>
        </g>
    </g>
</svg>